<?xml version="1.0" standalone="no"?>
<!DOCTYPE svg PUBLIC "-//W3C//DTD SVG 20010904//EN"
 "http://www.w3.org/TR/2001/REC-SVG-20010904/DTD/svg10.dtd">
<svg version="1.0" xmlns="http://www.w3.org/2000/svg"
 width="1125.000000pt" height="2436.000000pt" viewBox="0 0 1125.000000 2436.000000"
 preserveAspectRatio="xMidYMid meet">

<g transform="translate(0.000000,2436.000000) scale(0.100000,-0.100000)"
fill="#000000" stroke="none">
<path d="M30 22270 c-20 -20 -20 -33 -20 -763 0 -626 2 -746 14 -763 14 -19
69 -19 3972 -24 l3957 -5 -129 -59 c-71 -32 -169 -77 -218 -99 l-88 -41 41
-18 c61 -26 115 -73 175 -153 55 -73 101 -145 93 -145 -3 0 -19 23 -37 50 -18
28 -34 50 -37 50 -2 0 -1 -4 2 -10 4 -6 -5 -10 -19 -10 -14 0 -26 -4 -26 -10
0 -5 -7 -10 -15 -10 -27 0 -115 -54 -114 -70 1 -8 1 -24 0 -35 -1 -19 -3 -18
-22 5 -14 17 -11 7 9 -32 17 -31 46 -110 66 -175 75 -251 73 -347 -11 -405
-27 -19 -27 -19 -3 -13 29 8 100 54 100 65 0 10 47 55 57 55 9 0 109 58 135
79 12 8 18 27 18 53 0 38 -1 39 -30 35 -16 -2 -38 -1 -47 4 -10 4 -39 6 -65 5
-38 -2 -49 1 -55 15 -4 10 -2 19 5 22 7 2 12 10 12 17 0 14 65 76 98 94 11 6
23 7 27 3 3 -4 5 0 3 8 -2 8 3 14 10 12 9 -1 12 4 9 15 -16 55 -16 66 -1 33 9
-19 25 -78 36 -130 16 -78 18 -105 9 -154 -6 -33 -9 -61 -7 -64 2 -2 221 106
487 240 313 158 494 254 516 276 48 48 93 131 93 173 0 22 -8 47 -21 64 -19
23 -22 38 -20 105 1 43 -3 97 -9 120 -14 50 -74 118 -152 171 -43 29 -57 46
-60 66 -5 46 -55 65 -163 60 l-90 -3 -225 -105 -225 -104 -3987 0 c-3814 0
-3988 1 -4005 18 -17 17 -18 60 -21 693 -2 456 1 687 8 714 8 30 17 42 38 47
35 10 8769 10 8804 0 20 -5 30 -17 37 -45 7 -24 11 -255 11 -644 0 -509 2
-608 14 -608 7 0 16 14 20 31 3 17 6 312 6 655 0 611 0 624 -20 644 -20 20
-33 20 -4470 20 -4437 0 -4450 0 -4470 -20z"/>
<path d="M1040 21910 l0 -200 35 0 35 0 0 48 c0 36 5 54 20 67 19 17 20 16 52
-49 32 -66 33 -66 74 -66 l41 0 -43 83 c-24 45 -44 88 -44 95 0 7 21 35 46 62
l47 50 -46 0 c-43 0 -48 -3 -96 -57 l-51 -58 0 113 0 112 -35 0 -35 0 0 -200z"/>
<path d="M1740 22075 c0 -33 2 -35 35 -35 33 0 35 2 35 35 0 33 -2 35 -35 35
-33 0 -35 -2 -35 -35z"/>
<path d="M4290 21910 l0 -200 35 0 35 0 0 200 0 200 -35 0 -35 0 0 -200z"/>
<path d="M5610 21910 l0 -200 35 0 c25 0 35 4 35 16 0 13 5 12 26 -5 48 -38
111 -22 151 38 31 45 32 150 4 197 -33 54 -118 68 -163 27 -17 -15 -18 -12
-18 55 l0 72 -35 0 -35 0 0 -200z m177 14 c22 -22 25 -32 20 -77 -3 -37 -11
-56 -27 -69 -29 -23 -41 -23 -74 3 -52 41 -25 169 36 169 10 0 30 -12 45 -26z"/>
<path d="M5920 22075 c0 -33 2 -35 35 -35 33 0 35 2 35 35 0 33 -2 35 -35 35
-33 0 -35 -2 -35 -35z"/>
<path d="M7380 22075 c0 -33 2 -35 35 -35 33 0 35 2 35 35 0 33 -2 35 -35 35
-33 0 -35 -2 -35 -35z"/>
<path d="M350 21905 l0 -195 35 0 35 0 1 128 1 127 36 -128 35 -128 40 3 40 3
33 119 c18 65 35 121 38 124 3 3 6 -52 6 -121 l0 -127 35 0 35 0 0 195 0 196
-57 -3 -57 -3 -31 -125 c-17 -69 -34 -132 -37 -140 -2 -8 -20 48 -39 125 l-35
140 -57 3 -57 3 0 -196z"/>
<path d="M1850 21930 c0 -178 8 -203 70 -221 31 -10 49 -9 80 0 55 16 80 58
80 134 l0 57 -35 0 -35 0 0 -54 c0 -55 -16 -86 -45 -86 -33 0 -45 30 -45 111
l0 79 80 0 c79 0 80 0 80 25 0 25 -1 25 -80 25 l-80 0 0 40 c0 39 -1 40 -35
40 l-35 0 0 -150z"/>
<path d="M3560 21930 c0 -178 8 -203 70 -221 31 -10 49 -9 80 0 55 16 80 58
80 134 l0 57 -35 0 -35 0 0 -54 c0 -55 -16 -86 -45 -86 -33 0 -45 30 -45 111
l0 79 80 0 c79 0 80 0 80 25 0 25 -1 25 -80 25 l-80 0 0 40 c0 39 -1 40 -35
40 l-35 0 0 -150z"/>
<path d="M6490 21930 c0 -178 8 -203 70 -221 31 -10 49 -9 80 0 55 16 80 58
80 134 l0 57 -35 0 -35 0 0 -54 c0 -55 -16 -86 -45 -86 -33 0 -45 30 -45 111
l0 79 80 0 c79 0 80 0 80 25 0 25 -1 25 -80 25 l-80 0 0 40 c0 39 -1 40 -35
40 l-35 0 0 -150z"/>
<path d="M824 22000 c-37 -12 -50 -25 -59 -63 -7 -25 -5 -27 24 -27 18 0 40 9
51 20 22 22 42 25 71 10 45 -24 16 -53 -65 -65 -62 -10 -96 -41 -96 -87 0 -73
64 -105 143 -74 26 10 43 12 45 6 2 -5 20 -10 39 -10 l35 0 -3 120 c-4 112 -6
121 -29 145 -29 29 -104 41 -156 25z m86 -222 c-27 -22 -63 -23 -79 -4 -21 25
4 54 52 63 40 8 42 8 45 -16 3 -17 -4 -31 -18 -43z"/>
<path d="M1370 21997 c-107 -38 -104 -249 5 -285 63 -21 118 -8 156 36 l33 37
-34 3 c-19 2 -48 -4 -67 -15 -30 -16 -36 -16 -60 -3 -14 8 -30 25 -34 38 -8
22 -8 22 91 22 l100 0 0 35 c0 49 -23 100 -54 120 -34 22 -93 28 -136 12z m95
-72 c38 -37 31 -45 -35 -45 -66 0 -77 13 -40 50 26 26 46 25 75 -5z"/>
<path d="M2330 21997 c-107 -38 -104 -249 5 -285 63 -21 118 -8 156 36 l33 37
-34 3 c-19 2 -48 -4 -67 -15 -30 -16 -36 -16 -60 -3 -14 8 -30 25 -34 38 -8
22 -8 22 91 22 l100 0 0 35 c0 49 -23 100 -54 120 -34 22 -93 28 -136 12z m95
-72 c38 -37 31 -45 -35 -45 -66 0 -77 13 -40 50 26 26 46 25 75 -5z"/>
<path d="M2624 22000 c-37 -12 -50 -25 -59 -63 -7 -25 -5 -27 24 -27 18 0 40
9 51 20 22 22 42 25 71 10 45 -24 16 -53 -65 -65 -62 -10 -96 -41 -96 -87 0
-73 64 -105 143 -74 26 10 43 12 45 6 2 -5 20 -10 39 -10 l35 0 -3 120 c-4
112 -6 121 -29 145 -29 29 -104 41 -156 25z m86 -222 c-27 -22 -63 -23 -79 -4
-21 25 4 54 52 63 40 8 42 8 45 -16 3 -17 -4 -31 -18 -43z"/>
<path d="M2895 21999 c-38 -11 -55 -34 -55 -76 0 -44 27 -69 97 -89 71 -20 92
-36 73 -58 -18 -23 -77 -20 -97 4 -20 23 -83 28 -83 6 0 -27 42 -66 82 -77 94
-25 178 16 178 85 0 46 -26 69 -96 86 -66 16 -89 31 -81 54 10 24 73 22 89 -4
16 -25 78 -29 78 -4 0 64 -93 101 -185 73z"/>
<path d="M3901 21992 c-50 -25 -74 -63 -78 -124 -9 -122 89 -197 202 -154 59
23 85 65 85 140 0 74 -21 113 -73 137 -53 23 -92 24 -136 1z m116 -68 c22 -22
25 -32 20 -77 -7 -79 -56 -109 -111 -66 -22 18 -26 28 -26 74 0 46 4 56 26 74
35 28 59 26 91 -5z"/>
<path d="M4470 21997 c-107 -38 -104 -249 5 -285 63 -21 118 -8 156 36 l33 37
-34 3 c-19 2 -48 -4 -67 -15 -30 -16 -36 -16 -60 -3 -14 8 -30 25 -34 38 -8
22 -8 22 91 22 l100 0 0 35 c0 49 -23 100 -54 120 -34 22 -93 28 -136 12z m95
-72 c38 -37 31 -45 -35 -45 -66 0 -77 13 -40 50 26 26 46 25 75 -5z"/>
<path d="M4754 22000 c-37 -12 -50 -25 -59 -63 -7 -25 -5 -27 24 -27 18 0 40
9 51 20 22 22 42 25 71 10 45 -24 16 -53 -65 -65 -62 -10 -96 -41 -96 -87 0
-73 64 -105 143 -74 26 10 43 12 45 6 2 -5 20 -10 39 -10 l35 0 -3 120 c-4
112 -6 121 -29 145 -29 29 -104 41 -156 25z m86 -222 c-27 -22 -63 -23 -79 -4
-21 25 4 54 52 63 40 8 42 8 45 -16 3 -17 -4 -31 -18 -43z"/>
<path d="M5085 21998 c-11 -6 -23 -16 -27 -22 -5 -7 -8 -4 -8 7 0 13 -8 17
-35 17 l-35 0 0 -145 0 -145 35 0 35 0 0 90 c0 100 15 130 65 130 23 0 25 4
25 40 0 43 -15 51 -55 28z"/>
<path d="M5290 22003 c-8 -3 -23 -12 -32 -21 -16 -14 -18 -13 -18 1 0 13 -9
17 -35 17 l-35 0 0 -145 0 -145 35 0 35 0 0 100 c0 87 3 103 20 120 22 22 42
25 71 10 17 -10 19 -22 19 -120 l0 -110 40 0 40 0 0 110 c0 123 -13 164 -56
180 -27 11 -60 12 -84 3z"/>
<path d="M6093 21994 c-47 -24 -77 -91 -70 -156 8 -63 29 -96 75 -115 40 -17
86 -11 114 14 17 15 18 14 18 -21 0 -44 -36 -86 -75 -86 -25 0 -65 31 -65 50
0 6 -16 10 -35 10 -42 0 -44 -13 -12 -61 44 -66 157 -76 220 -19 l32 28 3 181
3 181 -35 0 c-27 0 -36 -4 -36 -17 0 -15 -1 -15 -19 1 -27 25 -80 29 -118 10z
m112 -69 c19 -18 25 -35 25 -65 0 -44 -33 -90 -65 -90 -9 0 -27 11 -40 25 -36
35 -35 105 1 134 34 27 50 26 79 -4z"/>
<path d="M6821 21992 c-50 -25 -74 -63 -78 -124 -9 -122 89 -197 202 -154 59
23 85 65 85 140 0 74 -21 113 -73 137 -53 23 -92 24 -136 1z m116 -68 c22 -22
25 -32 20 -77 -7 -79 -56 -109 -111 -66 -22 18 -26 28 -26 74 0 46 4 56 26 74
35 28 59 26 91 -5z"/>
<path d="M7166 21989 c-21 -17 -26 -18 -26 -5 0 12 -10 16 -35 16 l-35 0 0
-215 0 -215 35 0 35 0 0 87 c0 81 1 85 18 70 45 -41 130 -27 163 27 28 47 27
152 -4 197 -40 60 -103 76 -151 38z m74 -57 c30 -24 39 -102 16 -137 -24 -37
-62 -43 -92 -14 -19 18 -24 32 -24 75 0 45 4 56 26 73 33 26 45 26 74 3z"/>
<path d="M7553 21995 c-43 -18 -63 -53 -70 -118 -10 -99 45 -177 126 -177 40
0 102 32 116 61 22 41 19 49 -20 49 -19 0 -35 -4 -35 -10 0 -5 -11 -17 -25
-26 -37 -24 -71 -7 -85 44 -21 81 20 149 76 124 13 -7 27 -19 30 -27 9 -23 74
-20 74 3 0 45 -66 92 -127 92 -15 -1 -42 -7 -60 -15z"/>
<path d="M7835 21999 c-38 -11 -55 -34 -55 -76 0 -44 27 -69 97 -89 71 -20 92
-36 73 -58 -18 -23 -77 -20 -97 4 -20 23 -83 28 -83 6 0 -27 42 -66 82 -77 94
-25 178 16 178 85 0 46 -26 69 -96 86 -66 16 -89 31 -81 54 10 24 73 22 89 -4
16 -25 78 -29 78 -4 0 64 -93 101 -185 73z"/>
<path d="M1740 21855 l0 -145 35 0 35 0 0 145 0 145 -35 0 -35 0 0 -145z"/>
<path d="M3120 21885 c0 -109 1 -117 24 -140 41 -41 104 -45 140 -9 15 14 16
12 16 -25 0 -42 -26 -81 -53 -81 -20 0 -57 30 -57 46 0 9 -11 14 -35 14 -31 0
-35 -3 -35 -25 0 -14 13 -39 29 -57 25 -28 34 -32 83 -32 30 -1 67 6 82 14 50
26 56 53 56 240 l0 170 -35 0 -35 0 0 -99 c0 -92 -2 -101 -22 -115 -29 -21
-51 -20 -71 2 -13 15 -17 39 -17 115 l0 97 -35 0 -35 0 0 -115z"/>
<path d="M5920 21855 l0 -145 35 0 35 0 0 145 0 145 -35 0 -35 0 0 -145z"/>
<path d="M7380 21855 l0 -145 35 0 35 0 0 145 0 145 -35 0 -35 0 0 -145z"/>
<path d="M10652 21757 c-35 -37 -61 -122 -74 -234 -10 -82 -9 -107 1 -130 l13
-28 10 25 c6 14 14 33 19 42 5 10 9 36 9 58 0 56 19 128 36 134 14 5 35 -53
49 -136 4 -24 11 -38 20 -38 8 0 14 5 13 11 -2 6 3 14 10 16 7 3 12 -3 12 -14
0 -12 13 -26 35 -36 57 -27 59 -25 52 61 -12 153 -74 270 -152 286 -25 5 -35
2 -53 -17z m118 -77 c0 -5 -2 -10 -4 -10 -3 0 -8 5 -11 10 -3 6 -1 10 4 10 6
0 11 -4 11 -10z"/>
<path d="M10199 21738 c-26 -22 -46 -62 -69 -137 -20 -67 -29 -165 -17 -178
15 -14 46 37 56 91 23 126 64 138 123 36 21 -36 43 -77 50 -92 13 -29 48 -37
77 -19 41 26 -41 243 -108 288 -37 25 -89 30 -112 11z"/>
<path d="M9755 21696 c-39 -41 -74 -146 -82 -241 -6 -64 -5 -69 10 -56 9 7 23
11 30 8 10 -4 14 6 15 36 2 47 28 134 43 143 26 16 56 -8 89 -72 19 -37 39
-76 45 -86 10 -19 79 -26 89 -9 10 15 -13 110 -40 171 -32 71 -79 119 -130
130 -35 8 -40 6 -69 -24z"/>
<path d="M9343 21685 c-42 -30 -92 -176 -93 -272 0 -42 0 -42 25 -31 15 7 28
22 30 37 23 118 45 158 79 145 9 -4 32 -36 51 -73 49 -94 57 -103 97 -99 33 3
33 3 32 55 -1 36 -11 72 -32 115 -38 78 -61 104 -106 123 -44 19 -56 19 -83 0z"/>
<path d="M10633 21312 c2 -131 -5 -152 -53 -152 -15 0 -34 8 -43 18 -23 25
-57 104 -50 116 3 5 1 6 -5 2 -15 -9 -26 -70 -18 -102 11 -43 50 -74 93 -74
52 0 113 37 130 77 11 27 11 31 -1 27 -7 -3 -16 2 -20 11 -4 12 0 19 14 22 29
8 25 49 -8 83 -23 22 -28 35 -24 59 2 19 0 31 -7 31 -7 0 -10 -38 -8 -118z"/>
<path d="M10164 21383 c9 -60 10 -166 2 -190 -5 -17 -15 -23 -35 -23 -30 0
-59 26 -84 74 l-14 30 -8 -25 c-16 -49 -7 -93 25 -121 17 -16 39 -28 51 -28
32 0 96 37 119 70 19 26 20 33 8 47 -10 13 -10 17 0 20 22 8 13 50 -16 75 -24
20 -27 28 -21 60 6 41 3 48 -19 48 -10 0 -12 -9 -8 -37z"/>
<path d="M770 21375 c0 -33 2 -35 35 -35 33 0 35 2 35 35 0 33 -2 35 -35 35
-33 0 -35 -2 -35 -35z"/>
<path d="M1150 21210 l0 -200 35 0 35 0 0 94 c0 86 2 98 24 123 21 24 27 26
52 18 l29 -10 3 -113 3 -112 39 0 40 0 0 109 c0 127 -8 154 -49 176 -40 20
-69 19 -108 -5 l-33 -20 0 70 0 70 -35 0 -35 0 0 -200z"/>
<path d="M1673 21395 c-34 -14 -53 -41 -53 -74 0 -16 -6 -21 -25 -21 -20 0
-25 -5 -25 -25 0 -20 5 -25 25 -25 l25 0 0 -120 0 -120 35 0 35 0 0 120 0 120
25 0 c20 0 25 5 25 25 0 20 -5 25 -26 25 -32 0 -30 30 4 45 15 7 22 18 22 37
0 32 -16 35 -67 13z"/>
<path d="M1760 21210 l0 -200 35 0 35 0 0 200 0 200 -35 0 -35 0 0 -200z"/>
<path d="M2430 21210 l0 -200 35 0 35 0 0 94 c0 86 2 98 24 123 21 24 27 26
52 18 l29 -10 3 -113 3 -112 39 0 40 0 0 109 c0 127 -8 154 -49 176 -40 20
-69 19 -108 -5 l-33 -20 0 70 0 70 -35 0 -35 0 0 -200z"/>
<path d="M3670 21340 c0 -38 -3 -70 -7 -70 -3 0 -15 8 -26 18 -29 26 -99 23
-131 -7 -73 -68 -54 -232 30 -267 42 -18 88 -13 116 13 17 15 18 15 18 0 0
-13 9 -17 35 -17 l35 0 0 200 0 200 -35 0 -35 0 0 -70z m-29 -109 c20 -16 24
-28 24 -76 0 -48 -4 -60 -24 -76 -30 -24 -42 -24 -75 2 -22 18 -26 28 -26 74
0 83 48 119 101 76z"/>
<path d="M4990 21340 c0 -38 -3 -70 -7 -70 -3 0 -15 8 -26 18 -29 26 -99 23
-131 -7 -73 -68 -54 -232 30 -267 42 -18 88 -13 116 13 17 15 18 15 18 0 0
-13 9 -17 35 -17 l35 0 0 200 0 200 -35 0 -35 0 0 -70z m-29 -109 c20 -16 24
-28 24 -76 0 -48 -4 -60 -24 -76 -30 -24 -42 -24 -75 2 -22 18 -26 28 -26 74
0 83 48 119 101 76z"/>
<path d="M6560 21375 c0 -33 2 -35 35 -35 33 0 35 2 35 35 0 33 -2 35 -35 35
-33 0 -35 -2 -35 -35z"/>
<path d="M9736 21287 c7 -117 -1 -147 -42 -147 -30 0 -71 41 -83 84 l-8 31
-12 -28 c-6 -16 -11 -39 -11 -51 0 -29 35 -75 67 -87 51 -19 152 56 139 105
-3 14 -2 28 4 31 18 11 11 36 -18 64 -23 23 -26 33 -21 64 4 28 2 37 -8 37
-12 0 -13 -18 -7 -103z"/>
<path d="M880 21230 c0 -178 8 -203 70 -221 31 -10 49 -9 80 0 55 16 80 58 80
134 l0 57 -35 0 -35 0 0 -54 c0 -55 -16 -86 -45 -86 -33 0 -45 30 -45 111 l0
79 80 0 c79 0 80 0 80 25 0 25 -1 25 -80 25 l-80 0 0 40 c0 39 -1 40 -35 40
l-35 0 0 -150z"/>
<path d="M6290 21230 c0 -178 8 -203 70 -221 31 -10 49 -9 80 0 55 16 80 58
80 134 l0 57 -35 0 -35 0 0 -54 c0 -55 -16 -86 -45 -86 -33 0 -45 30 -45 111
l0 79 80 0 c79 0 80 0 80 25 0 25 -1 25 -80 25 l-80 0 0 40 c0 39 -1 40 -35
40 l-35 0 0 -150z"/>
<path d="M7400 21230 c0 -178 8 -203 70 -221 31 -10 49 -9 80 0 55 16 80 58
80 134 l0 57 -35 0 -35 0 0 -54 c0 -55 -16 -86 -45 -86 -33 0 -45 30 -45 111
l0 79 80 0 c79 0 80 0 80 25 0 25 -1 25 -80 25 l-80 0 0 40 c0 39 -1 40 -35
40 l-35 0 0 -150z"/>
<path d="M8240 21230 c0 -178 8 -203 70 -221 31 -10 49 -9 80 0 55 16 80 58
80 134 l0 57 -35 0 -35 0 0 -54 c0 -55 -16 -86 -45 -86 -33 0 -45 30 -45 111
l0 79 80 0 c79 0 80 0 80 25 0 25 -1 25 -80 25 l-80 0 0 40 c0 39 -1 40 -35
40 l-35 0 0 -150z"/>
<path d="M9308 21353 c-2 -10 0 -49 5 -86 16 -122 -6 -171 -64 -146 -22 9 -38
26 -52 58 -19 44 -20 45 -29 21 -6 -16 -6 -38 2 -62 22 -76 108 -82 169 -12
27 30 29 37 18 56 -9 16 -9 22 1 25 21 8 13 43 -14 68 -15 14 -22 25 -17 25 6
0 13 16 15 35 3 28 1 35 -13 35 -10 0 -19 -8 -21 -17z"/>
<path d="M11007 21314 c9 -71 -57 -667 -91 -814 -8 -36 -17 -85 -21 -110 -4
-25 -9 -47 -12 -50 -8 -7 3 214 28 572 16 221 19 319 12 350 l-10 43 -6 -65
c-4 -36 -16 -164 -27 -285 -25 -265 -26 -271 -45 -255 -8 7 -15 19 -15 27 0 8
-4 12 -9 9 -15 -9 -19 16 -9 52 5 18 7 43 5 55 -3 16 -5 13 -6 -10 0 -17 -7
-38 -15 -46 -9 -9 -15 -34 -14 -65 0 -71 -34 -252 -48 -252 -6 0 -14 -12 -17
-26 -3 -17 -1 -24 8 -20 10 3 11 -2 4 -22 -5 -15 -16 -71 -25 -125 -9 -54 -22
-104 -28 -110 -16 -16 -26 -56 -16 -62 5 -3 5 -20 0 -38 -4 -17 -16 -76 -26
-129 -13 -70 -22 -98 -32 -98 -11 0 -13 -9 -9 -35 3 -19 2 -47 -3 -62 -10 -31
-41 -182 -46 -225 -3 -20 1 -28 11 -28 8 0 15 6 15 14 0 8 4 16 9 18 6 2 19
35 30 73 12 44 20 61 21 45 2 -23 3 -23 9 5 6 27 4 31 -24 36 -27 6 -25 7 13
8 l43 1 -7 -35 c-6 -35 -6 -35 30 -35 22 0 36 -5 36 -12 0 -7 -7 -69 -15 -138
-8 -69 -15 -129 -15 -134 0 -5 -6 -3 -14 3 -8 7 -27 11 -43 9 -25 -3 -28 -8
-31 -42 l-3 -39 40 6 c48 6 47 13 31 -145 -16 -156 -11 -146 -70 -138 -28 4
-52 4 -55 2 -3 -3 -5 -20 -5 -39 l0 -33 50 0 c49 0 50 -1 50 -31 0 -17 -5 -73
-11 -124 -6 -52 -9 -100 -7 -107 3 -7 11 41 18 107 12 116 30 177 30 104 0
-60 -28 -267 -40 -288 -30 -57 -94 -62 -445 -36 -110 8 -258 20 -330 25 -177
13 -670 48 -775 55 -47 3 -103 8 -125 11 -62 9 -38 -3 71 -36 119 -36 359 -60
1139 -115 121 -9 231 -18 245 -20 21 -5 207 -15 262 -15 20 0 50 -62 42 -84
-9 -24 -55 -37 -133 -37 -42 0 -312 18 -600 41 -288 22 -528 39 -535 37 -13
-5 22 -8 568 -52 685 -56 732 -56 760 -12 10 14 22 98 35 237 22 238 65 677
176 1822 41 422 75 794 75 827 0 53 -4 65 -29 93 l-30 33 6 -41z m-207 -671
c-1 -52 -25 -222 -33 -230 -16 -16 -17 11 -2 107 8 57 15 116 15 132 0 15 5
28 10 28 6 0 10 -17 10 -37z m35 -10 c9 -21 10 -15 -6 -166 -11 -110 -13 -117
-29 -102 -9 8 -23 15 -30 15 -11 0 -10 3 2 13 11 8 19 47 28 135 13 119 20
140 35 105z m-79 -316 c-8 -88 -31 -237 -37 -237 -17 0 -17 21 2 140 10 69 19
129 19 133 0 5 4 6 9 3 5 -4 8 -21 7 -39z m40 -22 c12 -12 13 -33 2 -150 -11
-127 -18 -150 -33 -124 -4 6 -17 14 -29 19 -15 6 -16 9 -5 9 18 1 23 28 35
179 4 45 9 82 11 82 3 0 11 -7 19 -15z m-90 -313 c-11 -124 -31 -240 -40 -235
-5 4 -23 10 -40 14 -30 7 -30 7 -5 8 31 1 30 -2 55 154 17 107 38 149 30 59z
m58 -172 c-7 -69 -13 -132 -13 -140 -1 -11 -6 -9 -22 6 -20 20 -20 26 -10 120
7 55 14 116 17 138 6 37 7 38 24 20 16 -18 16 -28 4 -144z m-35 -359 c-7 -78
-16 -141 -21 -141 -10 0 -10 5 2 115 15 138 21 177 27 172 3 -3 -1 -69 -8
-146z m-19 -208 c-1 -39 -30 -277 -34 -281 -13 -12 -13 8 0 123 7 66 13 130
13 143 1 12 6 22 11 22 6 0 10 -3 10 -7z"/>
<path d="M10752 19895 c0 -16 2 -22 5 -12 2 9 2 23 0 30 -3 6 -5 -1 -5 -18z"/>
<path d="M10742 19810 c0 -19 2 -27 5 -17 2 9 2 25 0 35 -3 9 -5 1 -5 -18z"/>
<path d="M10732 19710 c0 -19 2 -27 5 -17 2 9 2 25 0 35 -3 9 -5 1 -5 -18z"/>
<path d="M1934 21300 c-37 -12 -50 -25 -59 -63 -7 -25 -5 -27 24 -27 18 0 40
9 51 20 22 22 42 25 71 10 45 -24 16 -53 -65 -65 -62 -10 -96 -41 -96 -87 0
-73 64 -105 143 -74 26 10 43 12 45 6 2 -5 20 -10 39 -10 l35 0 -3 120 c-4
112 -6 121 -29 145 -29 29 -104 41 -156 25z m86 -222 c-27 -22 -63 -23 -79 -4
-21 25 4 54 52 63 40 8 42 8 45 -16 3 -17 -4 -31 -18 -43z"/>
<path d="M2215 21299 c-38 -11 -55 -34 -55 -76 0 -44 27 -69 97 -89 71 -20 92
-36 73 -58 -18 -23 -77 -20 -97 4 -20 23 -83 28 -83 6 0 -27 42 -66 82 -77 94
-25 178 16 178 85 0 46 -26 69 -96 86 -66 16 -89 31 -81 54 10 24 73 22 89 -4
16 -25 78 -29 78 -4 0 64 -93 101 -185 73z"/>
<path d="M2793 21295 c-43 -18 -63 -53 -70 -118 -10 -99 45 -177 126 -177 40
0 102 32 116 61 22 41 19 49 -20 49 -19 0 -35 -4 -35 -10 0 -5 -11 -17 -25
-26 -37 -24 -71 -7 -85 44 -21 81 20 149 76 124 13 -7 27 -19 30 -27 9 -23 74
-20 74 3 0 45 -66 92 -127 92 -15 -1 -42 -7 -60 -15z"/>
<path d="M3084 21300 c-37 -12 -50 -25 -59 -63 -7 -25 -5 -27 24 -27 18 0 40
9 51 20 22 22 42 25 71 10 45 -24 16 -53 -65 -65 -62 -10 -96 -41 -96 -87 0
-73 64 -105 143 -74 26 10 43 12 45 6 2 -5 20 -10 39 -10 l35 0 -3 120 c-4
112 -6 121 -29 145 -29 29 -104 41 -156 25z m86 -222 c-27 -22 -63 -23 -79 -4
-21 25 4 54 52 63 40 8 42 8 45 -16 3 -17 -4 -31 -18 -43z"/>
<path d="M3405 21298 c-11 -6 -23 -16 -27 -22 -5 -7 -8 -4 -8 7 0 13 -8 17
-35 17 l-35 0 0 -145 0 -145 35 0 35 0 0 90 c0 100 15 130 65 130 23 0 25 4
25 40 0 43 -15 51 -55 28z"/>
<path d="M3835 21299 c-38 -11 -55 -34 -55 -76 0 -44 27 -69 97 -89 71 -20 92
-36 73 -58 -18 -23 -77 -20 -97 4 -20 23 -83 28 -83 6 0 -27 42 -66 82 -77 94
-25 178 16 178 85 0 46 -26 69 -96 86 -66 16 -89 31 -81 54 10 24 73 22 89 -4
16 -25 78 -29 78 -4 0 64 -93 101 -185 73z"/>
<path d="M4264 21300 c-37 -12 -50 -25 -59 -63 -7 -25 -5 -27 24 -27 18 0 40
9 51 20 22 22 42 25 71 10 45 -24 16 -53 -65 -65 -62 -10 -96 -41 -96 -87 0
-73 64 -105 143 -74 26 10 43 12 45 6 2 -5 20 -10 39 -10 l35 0 -3 120 c-4
112 -6 121 -29 145 -29 29 -104 41 -156 25z m86 -222 c-27 -22 -63 -23 -79 -4
-21 25 4 54 52 63 40 8 42 8 45 -16 3 -17 -4 -31 -18 -43z"/>
<path d="M4610 21303 c-8 -3 -23 -12 -32 -21 -16 -14 -18 -13 -18 1 0 13 -9
17 -35 17 l-35 0 0 -145 0 -145 35 0 35 0 0 100 c0 87 3 103 20 120 22 22 42
25 71 10 17 -10 19 -22 19 -120 l0 -110 40 0 40 0 0 110 c0 123 -13 164 -56
180 -27 11 -60 12 -84 3z"/>
<path d="M5336 21289 c-21 -17 -26 -18 -26 -5 0 12 -10 16 -35 16 l-35 0 0
-215 0 -215 35 0 35 0 0 87 c0 81 1 85 18 70 45 -41 130 -27 163 27 28 47 27
152 -4 197 -40 60 -103 76 -151 38z m74 -57 c30 -24 39 -102 16 -137 -24 -37
-62 -43 -92 -14 -19 18 -24 32 -24 75 0 45 4 56 26 73 33 26 45 26 74 3z"/>
<path d="M5655 21298 c-11 -6 -23 -16 -27 -22 -5 -7 -8 -4 -8 7 0 13 -8 17
-35 17 l-35 0 0 -145 0 -145 35 0 35 0 0 90 c0 100 15 130 65 130 23 0 25 4
25 40 0 43 -15 51 -55 28z"/>
<path d="M5784 21300 c-37 -12 -50 -25 -59 -63 -7 -25 -5 -27 24 -27 18 0 40
9 51 20 22 22 42 25 71 10 45 -24 16 -53 -65 -65 -62 -10 -96 -41 -96 -87 0
-73 64 -105 143 -74 26 10 43 12 45 6 2 -5 20 -10 39 -10 l35 0 -3 120 c-4
112 -6 121 -29 145 -29 29 -104 41 -156 25z m86 -222 c-27 -22 -63 -23 -79 -4
-21 25 4 54 52 63 40 8 42 8 45 -16 3 -17 -4 -31 -18 -43z"/>
<path d="M6073 21295 c-43 -18 -63 -53 -70 -118 -10 -99 45 -177 126 -177 40
0 102 32 116 61 22 41 19 49 -20 49 -19 0 -35 -4 -35 -10 0 -5 -11 -17 -25
-26 -37 -24 -71 -7 -85 44 -21 81 20 149 76 124 13 -7 27 -19 30 -27 9 -23 74
-20 74 3 0 45 -66 92 -127 92 -15 -1 -42 -7 -60 -15z"/>
<path d="M6733 21295 c-43 -18 -63 -53 -70 -118 -10 -99 45 -177 126 -177 40
0 102 32 116 61 22 41 19 49 -20 49 -19 0 -35 -4 -35 -10 0 -5 -11 -17 -25
-26 -37 -24 -71 -7 -85 44 -21 81 20 149 76 124 13 -7 27 -19 30 -27 9 -23 74
-20 74 3 0 45 -66 92 -127 92 -15 -1 -42 -7 -60 -15z"/>
<path d="M7030 21297 c-107 -38 -104 -249 5 -285 63 -21 118 -8 156 36 l33 37
-34 3 c-19 2 -48 -4 -67 -15 -30 -16 -36 -16 -60 -3 -14 8 -30 25 -34 38 -8
22 -8 22 91 22 l100 0 0 35 c0 49 -23 100 -54 120 -34 22 -93 28 -136 12z m95
-72 c38 -37 31 -45 -35 -45 -66 0 -77 13 -40 50 26 26 46 25 75 -5z"/>
<path d="M7730 21297 c-107 -38 -104 -249 5 -285 63 -21 118 -8 156 36 l33 37
-34 3 c-19 2 -48 -4 -67 -15 -30 -16 -36 -16 -60 -3 -14 8 -30 25 -34 38 -8
22 -8 22 91 22 l100 0 0 35 c0 49 -23 100 -54 120 -34 22 -93 28 -136 12z m95
-72 c38 -37 31 -45 -35 -45 -66 0 -77 13 -40 50 26 26 46 25 75 -5z"/>
<path d="M8015 21299 c-38 -11 -55 -34 -55 -76 0 -44 27 -69 97 -89 71 -20 92
-36 73 -58 -18 -23 -77 -20 -97 4 -20 23 -83 28 -83 6 0 -27 42 -66 82 -77 94
-25 178 16 178 85 0 46 -26 69 -96 86 -66 16 -89 31 -81 54 10 24 73 22 89 -4
16 -25 78 -29 78 -4 0 64 -93 101 -185 73z"/>
<path d="M8555 21299 c-38 -11 -55 -34 -55 -76 0 -44 27 -69 97 -89 71 -20 92
-36 73 -58 -18 -23 -77 -20 -97 4 -20 23 -83 28 -83 6 0 -27 42 -66 82 -77 94
-25 178 16 178 85 0 46 -26 69 -96 86 -66 16 -89 31 -81 54 10 24 73 22 89 -4
16 -25 78 -29 78 -4 0 64 -93 101 -185 73z"/>
<path d="M374 21155 l41 -146 39 3 39 3 22 80 c11 44 24 75 27 70 3 -6 14 -43
24 -83 l19 -73 39 3 39 3 38 130 c21 72 39 136 39 143 0 7 -13 12 -35 12 -37
0 -38 -2 -66 -127 -15 -64 -20 -57 -44 50 l-17 77 -38 0 -38 0 -16 -71 c-9
-39 -16 -78 -16 -85 0 -8 -4 -14 -8 -14 -5 0 -17 37 -28 83 l-19 82 -41 3 -41
3 41 -146z"/>
<path d="M770 21155 l0 -145 35 0 35 0 0 145 0 145 -35 0 -35 0 0 -145z"/>
<path d="M6560 21155 l0 -145 35 0 35 0 0 145 0 145 -35 0 -35 0 0 -145z"/>
<path d="M9162 20891 c39 -33 77 -100 80 -144 1 -15 5 -27 8 -27 7 0 90 145
90 158 0 7 -2 12 -4 12 -12 0 -164 21 -186 26 -23 5 -21 2 12 -25z"/>
<path d="M10822 20780 c0 -14 2 -19 5 -12 2 6 2 18 0 25 -3 6 -5 1 -5 -13z"/>
<path d="M757 20437 c-3 -8 -2 -20 3 -27 11 -18 42 -4 38 17 -4 22 -34 29 -41
10z"/>
<path d="M2300 20325 c0 -104 2 -125 15 -125 11 0 15 13 15 53 0 57 20 97 49
97 30 0 41 -22 41 -87 0 -50 3 -63 15 -63 13 0 15 13 13 77 -3 73 -5 78 -31
93 -25 14 -30 13 -57 -2 l-30 -17 0 49 c0 38 -4 50 -15 50 -13 0 -15 -21 -15
-125z"/>
<path d="M3887 20437 c-3 -8 -2 -20 3 -27 11 -18 42 -4 38 17 -4 22 -34 29
-41 10z"/>
<path d="M3980 20336 c0 -119 8 -142 46 -134 25 5 28 25 4 31 -19 5 -20 13
-20 111 0 88 -3 106 -15 106 -12 0 -15 -19 -15 -114z"/>
<path d="M4090 20336 c0 -119 8 -142 46 -134 25 5 28 25 4 31 -19 5 -20 13
-20 111 0 88 -3 106 -15 106 -12 0 -15 -19 -15 -114z"/>
<path d="M4197 20437 c-3 -8 -2 -20 3 -27 11 -18 42 -4 38 17 -4 22 -34 29
-41 10z"/>
<path d="M5480 20399 c0 -46 -1 -49 -16 -35 -42 43 -114 -4 -114 -74 0 -69 57
-109 113 -79 16 9 22 9 25 0 2 -6 10 -11 18 -11 11 0 14 24 14 125 0 118 -1
125 -20 125 -17 0 -20 -7 -20 -51z m-12 -61 c7 -7 12 -28 12 -48 0 -41 -14
-60 -46 -60 -28 0 -47 24 -47 60 0 16 5 36 13 44 15 19 51 21 68 4z"/>
<path d="M460 20341 c0 -96 -9 -115 -52 -109 -15 2 -24 11 -26 26 -5 31 -32
29 -32 -3 0 -37 42 -61 88 -49 49 12 62 41 62 142 0 75 -2 82 -20 82 -18 0
-20 -7 -20 -89z"/>
<path d="M2173 20423 c-7 -2 -13 -13 -13 -24 0 -10 -7 -19 -15 -19 -8 0 -15
-7 -15 -15 0 -8 7 -15 15 -15 12 0 15 -13 15 -59 0 -78 28 -107 84 -85 24 9 8
32 -20 26 -23 -4 -24 -3 -24 57 l0 61 30 0 c20 0 30 5 30 15 0 10 -10 15 -30
15 -25 0 -30 4 -30 25 0 25 -4 28 -27 18z"/>
<path d="M3074 20418 c-32 -15 -49 -55 -48 -109 1 -62 24 -96 70 -105 49 -9
88 19 92 68 2 29 -2 40 -24 57 -31 24 -49 26 -85 7 -25 -13 -26 -12 -21 8 12
50 52 69 92 44 29 -18 39 1 11 23 -25 21 -54 23 -87 7z m77 -119 c16 -30 -3
-69 -34 -69 -29 0 -47 17 -47 45 0 45 60 63 81 24z"/>
<path d="M3267 20410 c-49 -39 -46 -155 5 -193 37 -28 92 -17 113 23 19 37 19
113 0 149 -22 44 -76 53 -118 21z m83 -25 c18 -22 23 -96 8 -125 -17 -31 -57
-39 -75 -14 -16 21 -17 107 -3 135 13 23 52 25 70 4z"/>
<path d="M5023 20423 c-7 -2 -13 -13 -13 -24 0 -10 -7 -19 -15 -19 -8 0 -15
-7 -15 -15 0 -8 7 -15 15 -15 12 0 15 -13 15 -59 0 -78 28 -107 84 -85 24 9 8
32 -20 26 -23 -4 -24 -3 -24 57 l0 61 30 0 c20 0 30 5 30 15 0 10 -10 15 -30
15 -25 0 -30 4 -30 25 0 25 -4 28 -27 18z"/>
<path d="M6003 20423 c-7 -2 -13 -13 -13 -24 0 -10 -7 -19 -15 -19 -8 0 -15
-7 -15 -15 0 -8 7 -15 15 -15 12 0 15 -13 15 -59 0 -78 28 -107 84 -85 24 9 8
32 -20 26 -23 -4 -24 -3 -24 57 l0 61 30 0 c20 0 30 5 30 15 0 10 -10 15 -30
15 -25 0 -30 4 -30 25 0 25 -4 28 -27 18z"/>
<path d="M583 20370 c-42 -17 -58 -94 -28 -137 32 -45 121 -37 144 13 37 83
-32 158 -116 124z m75 -32 c16 -16 16 -80 0 -96 -29 -29 -88 3 -88 48 0 45 59
77 88 48z"/>
<path d="M760 20290 c0 -73 3 -90 15 -90 12 0 15 17 15 90 0 73 -3 90 -15 90
-12 0 -15 -17 -15 -90z"/>
<path d="M850 20290 c0 -73 3 -90 15 -90 11 0 15 13 15 53 0 57 20 97 49 97
30 0 41 -22 41 -87 0 -50 3 -63 15 -63 13 0 15 13 13 77 -3 73 -5 78 -31 93
-25 14 -30 13 -57 -2 -25 -14 -30 -15 -30 -3 0 8 -7 15 -15 15 -12 0 -15 -17
-15 -90z"/>
<path d="M1180 20290 c0 -73 3 -90 15 -90 11 0 15 13 15 53 0 58 20 97 50 97
27 0 40 -30 40 -94 0 -43 3 -56 15 -56 12 0 15 13 15 58 0 68 15 95 51 90 23
-3 24 -7 27 -75 3 -65 5 -73 22 -73 18 0 20 7 20 60 0 32 -5 71 -12 85 -14 32
-54 43 -87 24 -23 -13 -29 -13 -54 1 -25 14 -30 13 -57 -2 -25 -14 -30 -15
-30 -3 0 8 -7 15 -15 15 -12 0 -15 -17 -15 -90z"/>
<path d="M1533 20370 c-42 -17 -58 -94 -28 -137 32 -45 121 -37 144 13 37 83
-32 158 -116 124z m75 -32 c7 -7 12 -28 12 -48 0 -41 -14 -60 -46 -60 -24 0
-54 34 -54 60 0 45 59 77 88 48z"/>
<path d="M1710 20290 c0 -73 3 -90 15 -90 11 0 15 13 15 53 0 59 20 97 51 97
10 0 19 7 19 15 0 20 -29 19 -52 -2 -17 -15 -18 -15 -18 0 0 10 -7 17 -15 17
-12 0 -15 -17 -15 -90z"/>
<path d="M1883 20370 c-43 -17 -58 -94 -28 -137 28 -40 135 -38 135 2 0 17
-21 20 -37 4 -16 -16 -54 -7 -71 19 l-14 22 66 0 c64 0 66 1 66 25 0 14 -11
37 -25 50 -25 26 -54 30 -92 15z m77 -40 c10 -19 8 -20 -40 -20 -27 0 -50 2
-50 4 0 3 7 12 16 20 22 22 61 20 74 -4z"/>
<path d="M2534 20370 c-25 -10 -38 -37 -21 -43 6 -2 18 2 25 10 18 17 47 17
62 -2 17 -20 6 -31 -36 -38 -45 -8 -64 -23 -64 -53 0 -34 41 -52 82 -36 23 8
35 9 45 1 14 -13 43 -5 43 11 0 5 -7 10 -15 10 -12 0 -15 13 -15 59 0 51 -3
62 -22 75 -25 17 -52 19 -84 6z m76 -103 c0 -20 -21 -37 -46 -37 -31 0 -41 20
-19 37 24 17 65 17 65 0z"/>
<path d="M2700 20290 c0 -73 3 -90 15 -90 11 0 15 13 15 53 0 57 20 97 49 97
30 0 41 -22 41 -87 0 -50 3 -63 15 -63 13 0 15 13 13 77 -3 73 -5 78 -31 93
-25 14 -30 13 -57 -2 -25 -14 -30 -15 -30 -3 0 8 -7 15 -15 15 -12 0 -15 -17
-15 -90z"/>
<path d="M3560 20290 c0 -73 3 -90 15 -90 11 0 15 13 15 53 0 58 20 97 50 97
27 0 40 -30 40 -94 0 -43 3 -56 15 -56 12 0 15 13 15 58 0 68 15 95 51 90 23
-3 24 -7 27 -75 3 -65 5 -73 22 -73 18 0 20 7 20 60 0 32 -5 71 -12 85 -14 32
-54 43 -87 24 -23 -13 -29 -13 -54 1 -25 14 -30 13 -57 -2 -25 -14 -30 -15
-30 -3 0 8 -7 15 -15 15 -12 0 -15 -17 -15 -90z"/>
<path d="M3890 20290 c0 -73 3 -90 15 -90 12 0 15 17 15 90 0 73 -3 90 -15 90
-12 0 -15 -17 -15 -90z"/>
<path d="M4200 20290 c0 -73 3 -90 15 -90 12 0 15 17 15 90 0 73 -3 90 -15 90
-12 0 -15 -17 -15 -90z"/>
<path d="M4323 20370 c-42 -17 -58 -94 -28 -137 32 -45 121 -37 144 13 37 83
-32 158 -116 124z m75 -32 c16 -16 16 -80 0 -96 -29 -29 -88 3 -88 48 0 45 59
77 88 48z"/>
<path d="M4500 20290 c0 -73 3 -90 15 -90 11 0 15 13 15 53 0 57 20 97 49 97
30 0 41 -22 41 -87 0 -50 3 -63 15 -63 13 0 15 13 13 77 -3 73 -5 78 -31 93
-25 14 -30 13 -57 -2 -25 -14 -30 -15 -30 -3 0 8 -7 15 -15 15 -12 0 -15 -17
-15 -90z"/>
<path d="M4843 20370 c-24 -10 -37 -39 -27 -63 3 -9 27 -22 52 -30 29 -8 47
-18 47 -27 0 -19 -51 -26 -70 -10 -14 12 -35 6 -35 -9 0 -11 47 -31 73 -31 37
0 69 28 65 58 -2 23 -11 29 -51 41 -33 10 -47 19 -45 30 4 21 35 26 64 10 33
-17 44 -1 15 22 -25 20 -53 23 -88 9z"/>
<path d="M5150 20305 c0 -68 2 -76 25 -91 27 -17 73 -12 87 9 5 8 8 6 8 -5 0
-10 7 -18 15 -18 12 0 15 17 15 90 0 73 -3 90 -15 90 -12 0 -15 -13 -15 -59 0
-63 -15 -91 -49 -91 -30 0 -41 22 -41 87 0 49 -3 63 -15 63 -12 0 -15 -15 -15
-75z"/>
<path d="M5603 20370 c-43 -17 -58 -94 -28 -137 28 -40 135 -38 135 2 0 17
-21 20 -37 4 -16 -16 -54 -7 -71 19 l-14 22 66 0 c64 0 66 1 66 25 0 14 -11
37 -25 50 -25 26 -54 30 -92 15z m77 -40 c10 -19 8 -20 -40 -20 -27 0 -50 2
-50 4 0 3 7 12 16 20 22 22 61 20 74 -4z"/>
<path d="M5770 20290 c0 -73 3 -90 15 -90 11 0 15 13 15 53 0 57 20 97 49 97
30 0 41 -22 41 -87 0 -50 3 -63 15 -63 13 0 15 13 13 77 -3 73 -5 78 -31 93
-25 14 -30 13 -57 -2 -25 -14 -30 -15 -30 -3 0 8 -7 15 -15 15 -12 0 -15 -17
-15 -90z"/>
<path d="M6153 20370 c-24 -10 -37 -39 -27 -63 3 -9 27 -22 52 -30 29 -8 47
-18 47 -27 0 -19 -51 -26 -70 -10 -14 12 -35 6 -35 -9 0 -11 47 -31 73 -31 37
0 69 28 65 58 -2 23 -11 29 -51 41 -33 10 -47 19 -45 30 4 21 35 26 64 10 33
-17 44 -1 15 22 -25 20 -53 23 -88 9z"/>
<path d="M7490 20246 c0 -2 8 -10 18 -17 15 -13 16 -12 3 4 -13 16 -21 21 -21
13z"/>
<path d="M1440 19989 c0 -46 -1 -49 -16 -35 -42 43 -114 -4 -114 -74 0 -69 57
-109 113 -79 16 9 22 9 25 0 2 -6 10 -11 18 -11 11 0 14 24 14 125 0 118 -1
125 -20 125 -17 0 -20 -7 -20 -51z m-12 -61 c7 -7 12 -28 12 -48 0 -41 -14
-60 -46 -60 -28 0 -47 24 -47 60 0 16 5 36 13 44 15 19 51 21 68 4z"/>
<path d="M1790 19915 c0 -104 2 -125 15 -125 11 0 15 13 15 53 0 57 20 97 49
97 30 0 41 -22 41 -87 0 -50 3 -63 15 -63 13 0 15 13 13 77 -3 73 -5 78 -31
93 -25 14 -30 13 -57 -2 l-30 -17 0 49 c0 38 -4 50 -15 50 -13 0 -15 -21 -15
-125z"/>
<path d="M2940 19926 c0 -119 8 -142 46 -134 25 5 28 25 4 31 -19 5 -20 13
-20 111 0 88 -3 106 -15 106 -12 0 -15 -19 -15 -114z"/>
<path d="M3170 19989 c0 -46 -1 -49 -16 -35 -42 43 -114 -4 -114 -74 0 -69 57
-109 113 -79 16 9 22 9 25 0 2 -6 10 -11 18 -11 11 0 14 24 14 125 0 118 -1
125 -20 125 -17 0 -20 -7 -20 -51z m-12 -61 c16 -16 16 -80 0 -96 -17 -17 -53
-15 -68 4 -8 8 -13 28 -13 44 0 16 5 36 13 44 15 19 51 21 68 4z"/>
<path d="M3670 19915 c0 -104 2 -125 15 -125 11 0 15 13 15 53 0 57 20 97 49
97 30 0 41 -22 41 -87 0 -50 3 -63 15 -63 13 0 15 13 13 77 -3 73 -5 78 -31
93 -25 14 -30 13 -57 -2 l-30 -17 0 49 c0 38 -4 50 -15 50 -13 0 -15 -21 -15
-125z"/>
<path d="M5367 20027 c-3 -8 -2 -20 3 -27 11 -18 42 -4 38 17 -4 22 -34 29
-41 10z"/>
<path d="M6540 19926 c0 -119 8 -142 46 -134 25 5 28 25 4 31 -19 5 -20 13
-20 111 0 88 -3 106 -15 106 -12 0 -15 -19 -15 -114z"/>
<path d="M1663 20013 c-7 -2 -13 -13 -13 -24 0 -10 -7 -19 -15 -19 -8 0 -15
-7 -15 -15 0 -8 7 -15 15 -15 12 0 15 -13 15 -59 0 -78 28 -107 84 -85 24 9 8
32 -20 26 -23 -4 -24 -3 -24 57 l0 61 30 0 c20 0 30 5 30 15 0 10 -10 15 -30
15 -25 0 -30 4 -30 25 0 25 -4 28 -27 18z"/>
<path d="M4950 20007 c-79 -39 -74 -177 8 -208 12 -5 27 -20 32 -34 5 -14 21
-30 34 -36 30 -14 76 -4 76 16 0 11 -7 14 -24 9 -25 -6 -66 10 -66 25 0 5 14
14 30 21 76 32 81 168 9 206 -34 17 -66 18 -99 1z m96 -38 c12 -14 19 -36 19
-64 0 -52 -26 -85 -67 -85 -43 0 -68 32 -68 85 0 76 70 115 116 64z"/>
<path d="M6223 20013 c-7 -2 -13 -13 -13 -24 0 -10 -7 -19 -15 -19 -8 0 -15
-7 -15 -15 0 -8 7 -15 15 -15 12 0 15 -13 15 -59 0 -78 28 -107 84 -85 24 9 8
32 -20 26 -23 -4 -24 -3 -24 57 l0 61 30 0 c20 0 30 5 30 15 0 10 -10 15 -30
15 -25 0 -30 4 -30 25 0 25 -4 28 -27 18z"/>
<path d="M384 19960 c-25 -10 -38 -37 -21 -43 6 -2 18 2 25 10 18 17 47 17 62
-2 17 -20 6 -31 -36 -38 -45 -8 -64 -23 -64 -53 0 -34 41 -52 82 -36 23 8 35
9 45 1 14 -13 43 -5 43 11 0 5 -7 10 -15 10 -12 0 -15 13 -15 59 0 51 -3 62
-22 75 -25 17 -52 19 -84 6z m76 -103 c0 -20 -21 -37 -46 -37 -31 0 -41 20
-19 37 24 17 65 17 65 0z"/>
<path d="M550 19880 c0 -73 3 -90 15 -90 11 0 15 13 15 53 0 59 20 97 51 97
10 0 19 7 19 15 0 20 -29 19 -52 -2 -17 -15 -18 -15 -18 0 0 10 -7 17 -15 17
-12 0 -15 -17 -15 -90z"/>
<path d="M723 19960 c-42 -17 -58 -94 -28 -137 32 -45 121 -37 144 13 37 83
-32 158 -116 124z m75 -32 c16 -16 16 -80 0 -96 -29 -29 -88 3 -88 48 0 45 59
77 88 48z"/>
<path d="M900 19895 c0 -68 2 -76 25 -91 27 -17 73 -12 87 9 5 8 8 6 8 -5 0
-10 7 -18 15 -18 12 0 15 17 15 90 0 73 -3 90 -15 90 -12 0 -15 -13 -15 -59 0
-63 -15 -91 -49 -91 -30 0 -41 22 -41 87 0 49 -3 63 -15 63 -12 0 -15 -15 -15
-75z"/>
<path d="M1110 19880 c0 -73 3 -90 15 -90 11 0 15 13 15 53 0 57 20 97 49 97
30 0 41 -22 41 -87 0 -50 3 -63 15 -63 13 0 15 13 13 77 -3 73 -5 78 -31 93
-25 14 -30 13 -57 -2 -25 -14 -30 -15 -30 -3 0 8 -7 15 -15 15 -12 0 -15 -17
-15 -90z"/>
<path d="M2033 19960 c-43 -17 -58 -94 -28 -137 28 -40 135 -38 135 2 0 17
-21 20 -37 4 -16 -16 -54 -7 -71 19 l-14 22 66 0 c64 0 66 1 66 25 0 14 -11
37 -25 50 -25 26 -54 30 -92 15z m77 -40 c10 -19 8 -20 -40 -20 -27 0 -50 2
-50 4 0 3 7 12 16 20 22 22 61 20 74 -4z"/>
<path d="M2309 19883 c22 -71 31 -89 48 -91 18 -3 23 6 38 62 10 36 21 63 25
61 4 -2 15 -32 24 -65 13 -46 21 -60 36 -60 14 0 25 20 48 90 28 84 29 90 12
90 -14 0 -23 -14 -34 -54 -9 -30 -16 -59 -16 -65 0 -6 -4 -11 -9 -11 -4 0 -16
29 -26 65 -23 88 -45 89 -70 3 -23 -79 -31 -88 -39 -47 -17 84 -27 109 -45
109 -18 0 -17 -5 8 -87z"/>
<path d="M2623 19960 c-42 -17 -58 -94 -28 -137 32 -45 121 -37 144 13 37 83
-32 158 -116 124z m75 -32 c16 -16 16 -80 0 -96 -29 -29 -88 3 -88 48 0 45 59
77 88 48z"/>
<path d="M2800 19880 c0 -73 3 -90 15 -90 11 0 15 13 15 53 0 59 20 97 51 97
10 0 19 7 19 15 0 20 -29 19 -52 -2 -17 -15 -18 -15 -18 0 0 10 -7 17 -15 17
-12 0 -15 -17 -15 -90z"/>
<path d="M3379 19883 c22 -71 31 -89 48 -91 18 -3 23 6 38 62 10 36 21 63 25
61 4 -2 15 -32 24 -65 13 -46 21 -60 36 -60 14 0 25 20 48 90 28 84 29 90 12
90 -14 0 -23 -14 -34 -54 -9 -30 -16 -59 -16 -65 0 -6 -4 -11 -9 -11 -4 0 -16
29 -26 65 -23 88 -45 89 -70 3 -23 -79 -31 -88 -39 -47 -17 84 -27 109 -45
109 -18 0 -17 -5 8 -87z"/>
<path d="M3913 19960 c-42 -17 -58 -94 -28 -137 32 -45 121 -37 144 13 37 83
-32 158 -116 124z m75 -32 c16 -16 16 -80 0 -96 -29 -29 -88 3 -88 48 0 45 59
77 88 48z"/>
<path d="M4200 19895 c0 -68 2 -76 25 -91 27 -17 73 -12 87 9 5 8 8 6 8 -5 0
-10 7 -18 15 -18 12 0 15 17 15 90 0 73 -3 90 -15 90 -12 0 -15 -13 -15 -59 0
-63 -15 -91 -49 -91 -30 0 -41 22 -41 87 0 49 -3 63 -15 63 -12 0 -15 -15 -15
-75z"/>
<path d="M4433 19960 c-24 -10 -37 -39 -27 -63 3 -9 27 -22 52 -30 29 -8 47
-18 47 -27 0 -19 -51 -26 -70 -10 -14 12 -35 6 -35 -9 0 -11 47 -31 73 -31 37
0 69 28 65 58 -2 23 -11 29 -51 41 -33 10 -47 19 -45 30 4 21 35 26 64 10 33
-17 44 -1 15 22 -25 20 -53 23 -88 9z"/>
<path d="M4623 19960 c-43 -17 -58 -94 -28 -137 28 -40 135 -38 135 2 0 17
-21 20 -37 4 -16 -16 -54 -7 -71 19 l-14 22 66 0 c64 0 66 1 66 25 0 14 -11
37 -25 50 -25 26 -54 30 -92 15z m77 -40 c10 -19 8 -20 -40 -20 -27 0 -50 2
-50 4 0 3 7 12 16 20 22 22 61 20 74 -4z"/>
<path d="M5150 19895 c0 -68 2 -76 25 -91 27 -17 73 -12 87 9 5 8 8 6 8 -5 0
-10 7 -18 15 -18 12 0 15 17 15 90 0 73 -3 90 -15 90 -12 0 -15 -13 -15 -59 0
-63 -15 -91 -49 -91 -30 0 -41 22 -41 87 0 49 -3 63 -15 63 -12 0 -15 -15 -15
-75z"/>
<path d="M5370 19880 c0 -73 3 -90 15 -90 12 0 15 17 15 90 0 73 -3 90 -15 90
-12 0 -15 -17 -15 -90z"/>
<path d="M5450 19955 c0 -11 12 -15 51 -15 l51 0 -51 -61 c-69 -82 -67 -89 19
-89 56 0 70 3 70 15 0 11 -12 15 -50 15 l-51 0 51 62 c27 35 50 68 50 75 0 9
-20 13 -70 13 -56 0 -70 -3 -70 -15z"/>
<path d="M5640 19845 c0 -104 2 -125 15 -125 11 0 15 12 15 46 0 40 2 45 18
38 31 -14 84 -8 98 11 16 22 18 98 4 125 -14 27 -65 35 -95 16 -22 -15 -25
-15 -25 -1 0 8 -7 15 -15 15 -13 0 -15 -21 -15 -125z m124 63 c14 -41 -3 -82
-36 -86 -27 -3 -58 27 -58 58 0 58 76 80 94 28z"/>
<path d="M5893 19960 c-42 -17 -58 -94 -28 -137 32 -45 121 -37 144 13 37 83
-32 158 -116 124z m75 -32 c7 -7 12 -28 12 -48 0 -41 -14 -60 -46 -60 -24 0
-54 34 -54 60 0 45 59 77 88 48z"/>
<path d="M6060 19880 c0 -73 3 -90 15 -90 11 0 15 13 15 53 0 59 20 97 51 97
10 0 19 7 19 15 0 20 -29 19 -52 -2 -17 -15 -18 -15 -18 0 0 10 -7 17 -15 17
-12 0 -15 -17 -15 -90z"/>
<path d="M6364 19960 c-25 -10 -38 -37 -21 -43 6 -2 18 2 25 10 18 17 47 17
62 -2 17 -20 6 -31 -36 -38 -45 -8 -64 -23 -64 -53 0 -34 41 -52 82 -36 23 8
35 9 45 1 14 -13 43 -5 43 11 0 5 -7 10 -15 10 -12 0 -15 13 -15 59 0 51 -3
62 -22 75 -25 17 -52 19 -84 6z m76 -103 c0 -20 -21 -37 -46 -37 -31 0 -41 20
-19 37 24 17 65 17 65 0z"/>
<path d="M6630 19885 c0 -12 13 -15 55 -15 42 0 55 3 55 15 0 12 -13 15 -55
15 -42 0 -55 -3 -55 -15z"/>
<path d="M727 19617 c-3 -8 -2 -20 3 -27 11 -18 42 -4 38 17 -4 22 -34 29 -41
10z"/>
<path d="M1377 19617 c-3 -8 -2 -20 3 -27 11 -18 42 -4 38 17 -4 22 -34 29
-41 10z"/>
<path d="M1503 19615 c-13 -9 -23 -25 -23 -36 0 -10 -7 -19 -15 -19 -8 0 -15
-7 -15 -15 0 -8 7 -15 15 -15 12 0 15 -15 15 -75 0 -68 2 -75 20 -75 18 0 20
7 20 75 0 73 1 75 25 75 16 0 25 6 25 15 0 9 -9 15 -25 15 -18 0 -25 5 -25 20
0 15 7 20 26 20 16 0 24 5 22 13 -7 18 -40 20 -65 2z"/>
<path d="M1607 19617 c-3 -8 -2 -20 3 -27 11 -18 42 -4 38 17 -4 22 -34 29
-41 10z"/>
<path d="M2090 19516 c0 -119 8 -142 46 -134 25 5 28 25 4 31 -19 5 -20 13
-20 111 0 88 -3 106 -15 106 -12 0 -15 -19 -15 -114z"/>
<path d="M2200 19516 c0 -119 8 -142 46 -134 25 5 28 25 4 31 -19 5 -20 13
-20 111 0 88 -3 106 -15 106 -12 0 -15 -19 -15 -114z"/>
<path d="M2710 19579 c0 -46 -1 -49 -16 -35 -42 43 -114 -4 -114 -74 0 -69 57
-109 113 -79 16 9 22 9 25 0 2 -6 10 -11 18 -11 11 0 14 24 14 125 0 118 -1
125 -20 125 -17 0 -20 -7 -20 -51z m-12 -61 c16 -16 16 -80 0 -96 -17 -17 -53
-15 -68 4 -8 8 -13 28 -13 44 0 16 5 36 13 44 15 19 51 21 68 4z"/>
<path d="M3370 19516 c0 -119 8 -142 46 -134 25 5 28 25 4 31 -19 5 -20 13
-20 111 0 88 -3 106 -15 106 -12 0 -15 -19 -15 -114z"/>
<path d="M4220 19579 c0 -46 -1 -49 -16 -35 -42 43 -114 -4 -114 -74 0 -69 57
-109 113 -79 16 9 22 9 25 0 2 -6 10 -11 18 -11 11 0 14 24 14 125 0 118 -1
125 -20 125 -17 0 -20 -7 -20 -51z m-12 -61 c16 -16 16 -80 0 -96 -17 -17 -53
-15 -68 4 -8 8 -13 28 -13 44 0 16 5 36 13 44 15 19 51 21 68 4z"/>
<path d="M4453 19615 c-13 -9 -23 -25 -23 -36 0 -10 -7 -19 -15 -19 -8 0 -15
-7 -15 -15 0 -8 7 -15 15 -15 12 0 15 -15 15 -75 0 -68 2 -75 20 -75 18 0 20
7 20 75 0 73 1 75 25 75 16 0 25 6 25 15 0 9 -9 15 -25 15 -18 0 -25 5 -25 20
0 15 7 20 26 20 16 0 24 5 22 13 -7 18 -40 20 -65 2z"/>
<path d="M4557 19617 c-3 -8 -2 -20 3 -27 11 -18 42 -4 38 17 -4 22 -34 29
-41 10z"/>
<path d="M4850 19505 c0 -104 2 -125 15 -125 11 0 15 13 15 53 0 57 20 97 49
97 30 0 41 -22 41 -87 0 -50 3 -63 15 -63 13 0 15 13 13 77 -3 73 -5 78 -31
93 -25 14 -30 13 -57 -2 l-30 -17 0 49 c0 38 -4 50 -15 50 -13 0 -15 -21 -15
-125z"/>
<path d="M6527 19617 c-3 -8 -2 -20 3 -27 11 -18 42 -4 38 17 -4 22 -34 29
-41 10z"/>
<path d="M1253 19603 c-7 -2 -13 -13 -13 -24 0 -10 -7 -19 -15 -19 -8 0 -15
-7 -15 -15 0 -8 7 -15 15 -15 12 0 15 -13 15 -59 0 -78 28 -107 84 -85 24 9 8
32 -20 26 -23 -4 -24 -3 -24 57 l0 61 30 0 c20 0 30 5 30 15 0 10 -10 15 -30
15 -25 0 -30 4 -30 25 0 25 -4 28 -27 18z"/>
<path d="M6413 19603 c-7 -2 -13 -13 -13 -24 0 -10 -7 -19 -15 -19 -8 0 -15
-7 -15 -15 0 -8 7 -15 15 -15 12 0 15 -13 15 -59 0 -78 28 -107 84 -85 24 9 8
32 -20 26 -23 -4 -24 -3 -24 57 l0 61 30 0 c20 0 30 5 30 15 0 10 -10 15 -30
15 -25 0 -30 4 -30 25 0 25 -4 28 -27 18z"/>
<path d="M10637 19514 c-9 -52 -13 -103 -9 -112 5 -15 4 -15 -12 1 -10 10 -33
17 -55 17 l-38 0 1 51 c1 56 -8 73 -19 32 -3 -15 -2 -29 5 -33 8 -5 7 -18 -4
-45 -26 -60 -22 -71 26 -74 23 -1 59 1 80 4 32 6 38 11 39 33 1 27 1 27 8 -3
6 -23 10 -5 20 75 6 58 14 115 17 128 4 18 0 22 -19 22 -22 0 -25 -6 -40 -96z
m23 -81 c-11 -17 -11 -17 -6 0 3 10 7 26 7 35 1 15 2 15 6 0 2 -10 -1 -25 -7
-35z"/>
<path d="M383 19550 c-24 -10 -37 -39 -27 -63 3 -9 27 -22 52 -30 29 -8 47
-18 47 -27 0 -19 -51 -26 -70 -10 -14 12 -35 6 -35 -9 0 -11 47 -31 73 -31 37
0 69 28 65 58 -2 23 -11 29 -51 41 -33 10 -47 19 -45 30 4 21 35 26 64 10 33
-17 44 -1 15 22 -25 20 -53 23 -88 9z"/>
<path d="M573 19550 c-28 -11 -43 -40 -43 -83 0 -72 77 -111 133 -67 22 17 25
25 16 31 -8 5 -20 2 -30 -7 -25 -22 -61 -14 -79 19 -13 24 -13 30 0 55 19 33
58 41 77 16 11 -14 15 -15 26 -5 10 10 7 16 -12 32 -25 20 -52 23 -88 9z"/>
<path d="M730 19470 c0 -73 3 -90 15 -90 12 0 15 17 15 90 0 73 -3 90 -15 90
-12 0 -15 -17 -15 -90z"/>
<path d="M853 19550 c-43 -17 -58 -94 -28 -137 28 -40 135 -38 135 2 0 17 -21
20 -37 4 -16 -16 -54 -7 -71 19 l-14 22 66 0 c64 0 66 1 66 25 0 14 -11 37
-25 50 -25 26 -54 30 -92 15z m77 -40 c10 -19 8 -20 -40 -20 -27 0 -50 2 -50
4 0 3 7 12 16 20 22 22 61 20 74 -4z"/>
<path d="M1020 19470 c0 -73 3 -90 15 -90 11 0 15 13 15 53 0 57 20 97 49 97
30 0 41 -22 41 -87 0 -50 3 -63 15 -63 13 0 15 13 13 77 -3 73 -5 78 -31 93
-25 14 -30 13 -57 -2 -25 -14 -30 -15 -30 -3 0 8 -7 15 -15 15 -12 0 -15 -17
-15 -90z"/>
<path d="M1380 19470 c0 -73 3 -90 15 -90 12 0 15 17 15 90 0 73 -3 90 -15 90
-12 0 -15 -17 -15 -90z"/>
<path d="M1610 19470 c0 -73 3 -90 15 -90 12 0 15 17 15 90 0 73 -3 90 -15 90
-12 0 -15 -17 -15 -90z"/>
<path d="M1733 19550 c-28 -11 -43 -40 -43 -83 0 -72 77 -111 133 -67 22 17
25 25 16 31 -8 5 -20 2 -30 -7 -25 -22 -61 -14 -79 19 -13 24 -13 30 0 55 19
33 58 41 77 16 11 -14 15 -15 26 -5 10 10 7 16 -12 32 -25 20 -52 23 -88 9z"/>
<path d="M1914 19550 c-25 -10 -38 -37 -21 -43 6 -2 18 2 25 10 18 17 47 17
62 -2 17 -20 6 -31 -36 -38 -45 -8 -64 -23 -64 -53 0 -34 41 -52 82 -36 23 8
35 9 45 1 14 -13 43 -5 43 11 0 5 -7 10 -15 10 -12 0 -15 13 -15 59 0 51 -3
62 -22 75 -25 17 -52 19 -84 6z m76 -103 c0 -20 -21 -37 -46 -37 -31 0 -41 20
-19 37 24 17 65 17 65 0z"/>
<path d="M2299 19513 c10 -27 27 -67 36 -90 21 -53 7 -88 -31 -80 -19 3 -24 1
-22 -12 4 -23 51 -26 70 -4 9 10 32 59 51 108 20 50 38 98 42 108 5 13 2 17
-12 17 -15 0 -24 -16 -43 -72 l-23 -73 -24 73 c-19 56 -29 72 -44 72 -18 0
-18 -1 0 -47z"/>
<path d="M2833 19550 c-43 -17 -58 -94 -28 -137 28 -40 135 -38 135 2 0 17
-21 20 -37 4 -16 -16 -54 -7 -71 19 l-14 22 66 0 c64 0 66 1 66 25 0 14 -11
37 -25 50 -25 26 -54 30 -92 15z m77 -40 c10 -19 8 -20 -40 -20 -27 0 -50 2
-50 4 0 3 7 12 16 20 22 22 61 20 74 -4z"/>
<path d="M2970 19554 c0 -5 14 -46 32 -91 42 -112 58 -111 103 10 30 79 31 87
14 87 -13 0 -23 -17 -40 -70 -13 -38 -25 -67 -28 -64 -3 3 -15 33 -27 67 -13
39 -27 63 -37 65 -10 2 -17 0 -17 -4z"/>
<path d="M3213 19550 c-43 -17 -58 -94 -28 -137 28 -40 135 -38 135 2 0 17
-21 20 -37 4 -16 -16 -54 -7 -71 19 l-14 22 66 0 c64 0 66 1 66 25 0 14 -11
37 -25 50 -25 26 -54 30 -92 15z m77 -40 c10 -19 8 -20 -40 -20 -27 0 -50 2
-50 4 0 3 7 12 16 20 22 22 61 20 74 -4z"/>
<path d="M3513 19550 c-42 -17 -58 -94 -28 -137 32 -45 121 -37 144 13 37 83
-32 158 -116 124z m75 -32 c16 -16 16 -80 0 -96 -29 -29 -88 3 -88 48 0 45 59
77 88 48z"/>
<path d="M3690 19435 c0 -104 2 -125 15 -125 11 0 15 12 15 46 0 40 2 45 18
38 31 -14 84 -8 98 11 16 22 18 98 4 125 -14 27 -65 35 -95 16 -22 -15 -25
-15 -25 -1 0 8 -7 15 -15 15 -13 0 -15 -21 -15 -125z m124 63 c14 -41 -3 -82
-36 -86 -27 -3 -58 27 -58 58 0 58 76 80 94 28z"/>
<path d="M3933 19550 c-43 -17 -58 -94 -28 -137 28 -40 135 -38 135 2 0 17
-21 20 -37 4 -16 -16 -54 -7 -71 19 l-14 22 66 0 c64 0 66 1 66 25 0 14 -11
37 -25 50 -25 26 -54 30 -92 15z m77 -40 c10 -19 8 -20 -40 -20 -27 0 -50 2
-50 4 0 3 7 12 16 20 22 22 61 20 74 -4z"/>
<path d="M4560 19470 c0 -73 3 -90 15 -90 12 0 15 17 15 90 0 73 -3 90 -15 90
-12 0 -15 -17 -15 -90z"/>
<path d="M4683 19550 c-28 -11 -43 -40 -43 -83 0 -72 77 -111 133 -67 22 17
25 25 16 31 -8 5 -20 2 -30 -7 -25 -22 -61 -14 -79 19 -13 24 -13 30 0 55 19
33 58 41 77 16 11 -14 15 -15 26 -5 10 10 7 16 -12 32 -25 20 -52 23 -88 9z"/>
<path d="M5093 19550 c-43 -17 -58 -94 -28 -137 28 -40 135 -38 135 2 0 17
-21 20 -37 4 -16 -16 -54 -7 -71 19 l-14 22 66 0 c64 0 66 1 66 25 0 14 -11
37 -25 50 -25 26 -54 30 -92 15z m77 -40 c10 -19 8 -20 -40 -20 -27 0 -50 2
-50 4 0 3 7 12 16 20 22 22 61 20 74 -4z"/>
<path d="M5283 19550 c-24 -10 -37 -39 -27 -63 3 -9 27 -22 52 -30 29 -8 47
-18 47 -27 0 -19 -51 -26 -70 -10 -14 12 -35 6 -35 -9 0 -11 47 -31 73 -31 37
0 69 28 65 58 -2 23 -11 29 -51 41 -33 10 -47 19 -45 30 4 21 35 26 64 10 33
-17 44 -1 15 22 -25 20 -53 23 -88 9z"/>
<path d="M5640 19435 c0 -104 2 -125 15 -125 11 0 15 12 15 46 0 40 2 45 18
38 31 -14 84 -8 98 11 16 22 18 98 4 125 -14 27 -65 35 -95 16 -22 -15 -25
-15 -25 -1 0 8 -7 15 -15 15 -13 0 -15 -21 -15 -125z m124 63 c14 -41 -3 -82
-36 -86 -27 -3 -58 27 -58 58 0 58 76 80 94 28z"/>
<path d="M5860 19470 c0 -73 3 -90 15 -90 11 0 15 13 15 53 0 59 20 97 51 97
10 0 19 7 19 15 0 20 -29 19 -52 -2 -17 -15 -18 -15 -18 0 0 10 -7 17 -15 17
-12 0 -15 -17 -15 -90z"/>
<path d="M6024 19550 c-25 -10 -38 -37 -21 -43 6 -2 18 2 25 10 18 17 47 17
62 -2 17 -20 6 -31 -36 -38 -45 -8 -64 -23 -64 -53 0 -34 41 -52 82 -36 23 8
35 9 45 1 14 -13 43 -5 43 11 0 5 -7 10 -15 10 -12 0 -15 13 -15 59 0 51 -3
62 -22 75 -25 17 -52 19 -84 6z m76 -103 c0 -20 -21 -37 -46 -37 -31 0 -41 20
-19 37 24 17 65 17 65 0z"/>
<path d="M6223 19550 c-28 -11 -43 -40 -43 -83 0 -72 77 -111 133 -67 22 17
25 25 16 31 -8 5 -20 2 -30 -7 -25 -22 -61 -14 -79 19 -13 24 -13 30 0 55 19
33 58 41 77 16 11 -14 15 -15 26 -5 10 10 7 16 -12 32 -25 20 -52 23 -88 9z"/>
<path d="M6530 19470 c0 -73 3 -90 15 -90 12 0 15 17 15 90 0 73 -3 90 -15 90
-12 0 -15 -17 -15 -90z"/>
<path d="M6653 19550 c-28 -11 -43 -40 -43 -83 0 -72 77 -111 133 -67 22 17
25 25 16 31 -8 5 -20 2 -30 -7 -25 -22 -61 -14 -79 19 -13 24 -13 30 0 55 19
33 58 41 77 16 11 -14 15 -15 26 -5 10 10 7 16 -12 32 -25 20 -52 23 -88 9z"/>
<path d="M6853 19550 c-43 -17 -58 -94 -28 -137 28 -40 135 -38 135 2 0 17
-21 20 -37 4 -16 -16 -54 -7 -71 19 l-14 22 66 0 c64 0 66 1 66 25 0 14 -11
37 -25 50 -25 26 -54 30 -92 15z m77 -40 c10 -19 8 -20 -40 -20 -27 0 -50 2
-50 4 0 3 7 12 16 20 22 22 61 20 74 -4z"/>
<path d="M5433 19414 c-4 -11 1 -22 13 -31 18 -14 18 -15 1 -28 -10 -7 -14
-16 -9 -19 17 -10 44 31 40 61 -3 32 -34 44 -45 17z"/>
<path d="M10485 19329 c-4 -6 -5 -12 -2 -15 2 -3 7 2 10 11 7 17 1 20 -8 4z"/>
<path d="M10596 19248 c-9 -29 -27 -170 -23 -174 2 -3 8 17 12 43 12 87 27
132 44 136 10 3 8 5 -7 6 -12 0 -24 -5 -26 -11z"/>
<path d="M1840 19169 c0 -46 -1 -49 -16 -35 -42 43 -114 -4 -114 -74 0 -69 57
-109 113 -79 16 9 22 9 25 0 2 -6 10 -11 18 -11 11 0 14 24 14 125 0 118 -1
125 -20 125 -17 0 -20 -7 -20 -51z m-12 -61 c7 -7 12 -28 12 -48 0 -41 -14
-60 -46 -60 -28 0 -47 24 -47 60 0 16 5 36 13 44 15 19 51 21 68 4z"/>
<path d="M4100 19095 c0 -104 2 -125 15 -125 11 0 15 13 15 53 0 57 20 97 49
97 30 0 41 -22 41 -87 0 -50 3 -63 15 -63 13 0 15 13 13 77 -3 73 -5 78 -31
93 -25 14 -30 13 -57 -2 l-30 -17 0 49 c0 38 -4 50 -15 50 -13 0 -15 -21 -15
-125z"/>
<path d="M4307 19207 c-3 -8 -2 -20 3 -27 11 -18 42 -4 38 17 -4 22 -34 29
-41 10z"/>
<path d="M5230 19095 c0 -104 2 -125 15 -125 11 0 15 13 15 53 0 57 20 97 49
97 30 0 41 -22 41 -87 0 -50 3 -63 15 -63 13 0 15 13 13 77 -3 73 -5 78 -31
93 -25 14 -30 13 -57 -2 l-30 -17 0 49 c0 38 -4 50 -15 50 -13 0 -15 -21 -15
-125z"/>
<path d="M5637 19207 c-3 -8 -2 -20 3 -27 11 -18 42 -4 38 17 -4 22 -34 29
-41 10z"/>
<path d="M6570 19106 c0 -119 8 -142 46 -134 25 5 28 25 4 31 -19 5 -20 13
-20 111 0 88 -3 106 -15 106 -12 0 -15 -19 -15 -114z"/>
<path d="M10641 19194 c0 -11 3 -14 6 -6 3 7 2 16 -1 19 -3 4 -6 -2 -5 -13z"/>
<path d="M383 19193 c-7 -2 -13 -13 -13 -24 0 -10 -7 -19 -15 -19 -8 0 -15 -7
-15 -15 0 -8 7 -15 15 -15 12 0 15 -13 15 -59 0 -78 28 -107 84 -85 24 9 8 32
-20 26 -23 -4 -24 -3 -24 57 l0 61 30 0 c20 0 30 5 30 15 0 10 -10 15 -30 15
-25 0 -30 4 -30 25 0 25 -4 28 -27 18z"/>
<path d="M903 19193 c-7 -2 -13 -13 -13 -24 0 -10 -7 -19 -15 -19 -8 0 -15 -7
-15 -15 0 -8 7 -15 15 -15 12 0 15 -13 15 -59 0 -78 28 -107 84 -85 24 9 8 32
-20 26 -23 -4 -24 -3 -24 57 l0 61 30 0 c20 0 30 5 30 15 0 10 -10 15 -30 15
-25 0 -30 4 -30 25 0 25 -4 28 -27 18z"/>
<path d="M3273 19193 c-7 -2 -13 -13 -13 -24 0 -10 -7 -19 -15 -19 -8 0 -15
-7 -15 -15 0 -8 7 -15 15 -15 12 0 15 -13 15 -59 0 -78 28 -107 84 -85 24 9 8
32 -20 26 -23 -4 -24 -3 -24 57 l0 61 30 0 c20 0 30 5 30 15 0 10 -10 15 -30
15 -25 0 -30 4 -30 25 0 25 -4 28 -27 18z"/>
<path d="M5103 19193 c-7 -2 -13 -13 -13 -24 0 -10 -7 -19 -15 -19 -8 0 -15
-7 -15 -15 0 -8 7 -15 15 -15 12 0 15 -13 15 -59 0 -78 28 -107 84 -85 24 9 8
32 -20 26 -23 -4 -24 -3 -24 57 l0 61 30 0 c20 0 30 5 30 15 0 10 -10 15 -30
15 -25 0 -30 4 -30 25 0 25 -4 28 -27 18z"/>
<path d="M10418 19175 c-6 -28 6 -34 16 -9 8 22 7 34 -3 34 -5 0 -11 -11 -13
-25z"/>
<path d="M2162 19165 c-11 -13 -22 -22 -25 -18 -3 3 -22 2 -42 -1 -43 -8 -64
-43 -48 -79 8 -16 8 -29 1 -42 -8 -13 -7 -24 1 -37 7 -11 7 -18 1 -18 -5 0
-10 -11 -10 -25 0 -32 39 -49 95 -40 48 7 65 20 65 51 0 30 -27 44 -85 44 -39
0 -46 3 -43 18 2 11 11 16 27 14 33 -5 79 17 87 40 3 11 0 32 -7 45 -12 22
-11 27 4 38 18 13 23 35 8 35 -5 0 -18 -11 -29 -25z m-17 -75 c0 -20 -6 -26
-28 -28 -29 -4 -44 16 -33 44 4 10 15 14 33 12 22 -2 28 -8 28 -28z m23 -137
c-4 -22 -72 -30 -94 -13 -23 20 -6 30 47 30 43 0 50 -3 47 -17z"/>
<path d="M6092 19165 c-11 -13 -22 -22 -25 -18 -3 3 -22 2 -42 -1 -43 -8 -64
-43 -48 -79 8 -16 8 -29 1 -42 -8 -13 -7 -24 1 -37 7 -11 7 -18 1 -18 -5 0
-10 -11 -10 -25 0 -32 39 -49 95 -40 48 7 65 20 65 51 0 30 -27 44 -85 44 -39
0 -46 3 -43 18 2 11 11 16 27 14 33 -5 79 17 87 40 3 11 0 32 -7 45 -12 22
-11 27 4 38 18 13 23 35 8 35 -5 0 -18 -11 -29 -25z m-17 -75 c0 -20 -6 -26
-28 -28 -29 -4 -44 16 -33 44 4 10 15 14 33 12 22 -2 28 -8 28 -28z m23 -137
c-4 -22 -72 -30 -94 -13 -23 20 -6 30 47 30 43 0 50 -3 47 -17z"/>
<path d="M533 19140 c-43 -17 -58 -94 -28 -137 28 -40 135 -38 135 2 0 17 -21
20 -37 4 -16 -16 -54 -7 -71 19 l-14 22 66 0 c64 0 66 1 66 25 0 14 -11 37
-25 50 -25 26 -54 30 -92 15z m77 -40 c10 -19 8 -20 -40 -20 -27 0 -50 2 -50
4 0 3 7 12 16 20 22 22 61 20 74 -4z"/>
<path d="M723 19140 c-24 -10 -37 -39 -27 -63 3 -9 27 -22 52 -30 29 -8 47
-18 47 -27 0 -19 -51 -26 -70 -10 -14 12 -35 6 -35 -9 0 -11 47 -31 73 -31 37
0 69 28 65 58 -2 23 -11 29 -51 41 -33 10 -47 19 -45 30 4 21 35 26 64 10 33
-17 44 -1 15 22 -25 20 -53 23 -88 9z"/>
<path d="M1053 19140 c-24 -10 -37 -39 -27 -63 3 -9 27 -22 52 -30 29 -8 47
-18 47 -27 0 -19 -51 -26 -70 -10 -14 12 -35 6 -35 -9 0 -11 47 -31 73 -31 37
0 69 28 65 58 -2 23 -11 29 -51 41 -33 10 -47 19 -45 30 4 21 35 26 64 10 33
-17 44 -1 15 22 -25 20 -53 23 -88 9z"/>
<path d="M1344 19140 c-25 -10 -38 -37 -21 -43 6 -2 18 2 25 10 18 17 47 17
62 -2 17 -20 6 -31 -36 -38 -45 -8 -64 -23 -64 -53 0 -34 41 -52 82 -36 23 8
35 9 45 1 14 -13 43 -5 43 11 0 5 -7 10 -15 10 -12 0 -15 13 -15 59 0 51 -3
62 -22 75 -25 17 -52 19 -84 6z m76 -103 c0 -20 -21 -37 -46 -37 -31 0 -41 20
-19 37 24 17 65 17 65 0z"/>
<path d="M1510 19060 c0 -73 3 -90 15 -90 11 0 15 13 15 53 0 57 20 97 49 97
30 0 41 -22 41 -87 0 -50 3 -63 15 -63 13 0 15 13 13 77 -3 73 -5 78 -31 93
-25 14 -30 13 -57 -2 -25 -14 -30 -15 -30 -3 0 8 -7 15 -15 15 -12 0 -15 -17
-15 -90z"/>
<path d="M2264 19140 c-25 -10 -38 -37 -21 -43 6 -2 18 2 25 10 18 17 47 17
62 -2 17 -20 6 -31 -36 -38 -45 -8 -64 -23 -64 -53 0 -34 41 -52 82 -36 23 8
35 9 45 1 14 -13 43 -5 43 11 0 5 -7 10 -15 10 -12 0 -15 13 -15 59 0 51 -3
62 -22 75 -25 17 -52 19 -84 6z m76 -103 c0 -20 -21 -37 -46 -37 -31 0 -41 20
-19 37 24 17 65 17 65 0z"/>
<path d="M2440 19060 c0 -73 3 -90 15 -90 11 0 15 13 15 53 0 58 20 97 50 97
27 0 40 -30 40 -94 0 -43 3 -56 15 -56 12 0 15 13 15 58 0 68 15 95 51 90 23
-3 24 -7 27 -75 3 -65 5 -73 22 -73 18 0 20 7 20 60 0 32 -5 71 -12 85 -14 32
-54 43 -87 24 -23 -13 -29 -13 -54 1 -25 14 -30 13 -57 -2 -25 -14 -30 -15
-30 -3 0 8 -7 15 -15 15 -12 0 -15 -17 -15 -90z"/>
<path d="M2793 19140 c-43 -17 -58 -94 -28 -137 28 -40 135 -38 135 2 0 17
-21 20 -37 4 -16 -16 -54 -7 -71 19 l-14 22 66 0 c64 0 66 1 66 25 0 14 -11
37 -25 50 -25 26 -54 30 -92 15z m77 -40 c10 -19 8 -20 -40 -20 -27 0 -50 2
-50 4 0 3 7 12 16 20 22 22 61 20 74 -4z"/>
<path d="M2983 19140 c-24 -10 -37 -39 -27 -63 3 -9 27 -22 52 -30 29 -8 47
-18 47 -27 0 -19 -51 -26 -70 -10 -14 12 -35 6 -35 -9 0 -11 47 -31 73 -31 37
0 69 28 65 58 -2 23 -11 29 -51 41 -33 10 -47 19 -45 30 4 21 35 26 64 10 33
-17 44 -1 15 22 -25 20 -53 23 -88 9z"/>
<path d="M3423 19140 c-42 -17 -58 -94 -28 -137 32 -45 121 -37 144 13 37 83
-32 158 -116 124z m75 -32 c16 -16 16 -80 0 -96 -29 -29 -88 3 -88 48 0 45 59
77 88 48z"/>
<path d="M3734 19140 c-25 -10 -38 -37 -21 -43 6 -2 18 2 25 10 18 17 47 17
62 -2 17 -20 6 -31 -36 -38 -45 -8 -64 -23 -64 -53 0 -34 41 -52 82 -36 23 8
35 9 45 1 14 -13 43 -5 43 11 0 5 -7 10 -15 10 -12 0 -15 13 -15 59 0 51 -3
62 -22 75 -25 17 -52 19 -84 6z m76 -103 c0 -20 -21 -37 -46 -37 -31 0 -41 20
-19 37 24 17 65 17 65 0z"/>
<path d="M3933 19140 c-28 -11 -43 -40 -43 -83 0 -72 77 -111 133 -67 22 17
25 25 16 31 -8 5 -20 2 -30 -7 -25 -22 -61 -14 -79 19 -13 24 -13 30 0 55 19
33 58 41 77 16 11 -14 15 -15 26 -5 10 10 7 16 -12 32 -25 20 -52 23 -88 9z"/>
<path d="M4310 19060 c0 -73 3 -90 15 -90 12 0 15 17 15 90 0 73 -3 90 -15 90
-12 0 -15 -17 -15 -90z"/>
<path d="M4433 19140 c-43 -17 -58 -94 -28 -137 28 -40 135 -38 135 2 0 17
-21 20 -37 4 -16 -16 -54 -7 -71 19 l-14 22 66 0 c64 0 66 1 66 25 0 14 -11
37 -25 50 -25 26 -54 30 -92 15z m77 -40 c10 -19 8 -20 -40 -20 -27 0 -50 2
-50 4 0 3 7 12 16 20 22 22 61 20 74 -4z"/>
<path d="M4580 19144 c0 -5 14 -46 32 -91 42 -112 58 -111 103 10 30 79 31 87
14 87 -13 0 -23 -17 -40 -70 -13 -38 -25 -67 -28 -64 -3 3 -15 33 -27 67 -13
39 -27 63 -37 65 -10 2 -17 0 -17 -4z"/>
<path d="M4813 19140 c-43 -17 -58 -94 -28 -137 28 -40 135 -38 135 2 0 17
-21 20 -37 4 -16 -16 -54 -7 -71 19 l-14 22 66 0 c64 0 66 1 66 25 0 14 -11
37 -25 50 -25 26 -54 30 -92 15z m77 -40 c10 -19 8 -20 -40 -20 -27 0 -50 2
-50 4 0 3 7 12 16 20 22 22 61 20 74 -4z"/>
<path d="M5473 19140 c-43 -17 -58 -94 -28 -137 28 -40 135 -38 135 2 0 17
-21 20 -37 4 -16 -16 -54 -7 -71 19 l-14 22 66 0 c64 0 66 1 66 25 0 14 -11
37 -25 50 -25 26 -54 30 -92 15z m77 -40 c10 -19 8 -20 -40 -20 -27 0 -50 2
-50 4 0 3 7 12 16 20 22 22 61 20 74 -4z"/>
<path d="M5640 19060 c0 -73 3 -90 15 -90 12 0 15 17 15 90 0 73 -3 90 -15 90
-12 0 -15 -17 -15 -90z"/>
<path d="M5730 19060 c0 -73 3 -90 15 -90 11 0 15 13 15 53 0 59 20 97 51 97
10 0 19 7 19 15 0 20 -29 19 -52 -2 -17 -15 -18 -15 -18 0 0 10 -7 17 -15 17
-12 0 -15 -17 -15 -90z"/>
<path d="M6203 19140 c-42 -17 -58 -94 -28 -137 32 -45 121 -37 144 13 37 83
-32 158 -116 124z m75 -32 c7 -7 12 -28 12 -48 0 -41 -14 -60 -46 -60 -24 0
-54 34 -54 60 0 45 59 77 88 48z"/>
<path d="M6404 19140 c-25 -10 -38 -37 -21 -43 6 -2 18 2 25 10 18 17 47 17
62 -2 17 -20 6 -31 -36 -38 -45 -8 -64 -23 -64 -53 0 -34 41 -52 82 -36 23 8
35 9 45 1 14 -13 43 -5 43 11 0 5 -7 10 -15 10 -12 0 -15 13 -15 59 0 51 -3
62 -22 75 -25 17 -52 19 -84 6z m76 -103 c0 -20 -21 -37 -46 -37 -31 0 -41 20
-19 37 24 17 65 17 65 0z"/>
<path d="M6703 19140 c-24 -10 -37 -39 -27 -63 3 -9 27 -22 52 -30 29 -8 47
-18 47 -27 0 -19 -51 -26 -70 -10 -14 12 -35 6 -35 -9 0 -11 47 -31 73 -31 37
0 69 28 65 58 -2 23 -11 29 -51 41 -33 10 -47 19 -45 30 4 21 35 26 64 10 33
-17 44 -1 15 22 -25 20 -53 23 -88 9z"/>
<path d="M10402 19051 c-10 -27 -8 -29 20 -35 17 -3 52 -6 79 -6 44 0 49 2 55
26 9 35 -7 44 -83 44 -58 0 -61 -1 -71 -29z"/>
<path d="M357 18797 c-3 -8 -2 -20 3 -27 11 -18 42 -4 38 17 -4 22 -34 29 -41
10z"/>
<path d="M1150 18685 c0 -104 2 -125 15 -125 11 0 15 13 15 53 0 57 20 97 49
97 30 0 41 -22 41 -87 0 -50 3 -63 15 -63 13 0 15 13 13 77 -3 73 -5 78 -31
93 -25 14 -30 13 -57 -2 l-30 -17 0 49 c0 38 -4 50 -15 50 -13 0 -15 -21 -15
-125z"/>
<path d="M1770 18696 c0 -119 8 -142 46 -134 25 5 28 25 4 31 -19 5 -20 13
-20 111 0 88 -3 106 -15 106 -12 0 -15 -19 -15 -114z"/>
<path d="M2507 18797 c-3 -8 -2 -20 3 -27 11 -18 42 -4 38 17 -4 22 -34 29
-41 10z"/>
<path d="M3297 18797 c-3 -8 -2 -20 3 -27 11 -18 42 -4 38 17 -4 22 -34 29
-41 10z"/>
<path d="M4360 18759 c0 -46 -1 -49 -16 -35 -42 43 -114 -4 -114 -74 0 -69 57
-109 113 -79 16 9 22 9 25 0 2 -6 10 -11 18 -11 11 0 14 24 14 125 0 118 -1
125 -20 125 -17 0 -20 -7 -20 -51z m-12 -61 c16 -16 16 -80 0 -96 -17 -17 -53
-15 -68 4 -8 8 -13 28 -13 44 0 16 5 36 13 44 15 19 51 21 68 4z"/>
<path d="M4560 18685 c0 -104 2 -125 15 -125 8 0 15 7 15 15 0 14 3 14 25 -1
30 -19 81 -11 95 16 6 10 10 37 10 60 0 23 -4 50 -10 60 -14 27 -65 35 -95 16
l-25 -16 0 50 c0 38 -4 50 -15 50 -13 0 -15 -21 -15 -125z m124 -7 c14 -41 -3
-82 -36 -86 -27 -3 -58 27 -58 58 0 58 76 80 94 28z"/>
<path d="M5690 18759 c0 -46 -1 -49 -16 -35 -42 43 -114 -4 -114 -74 0 -69 57
-109 113 -79 16 9 22 9 25 0 2 -6 10 -11 18 -11 11 0 14 24 14 125 0 118 -1
125 -20 125 -17 0 -20 -7 -20 -51z m-12 -61 c7 -7 12 -28 12 -48 0 -41 -14
-60 -46 -60 -28 0 -47 24 -47 60 0 16 5 36 13 44 15 19 51 21 68 4z"/>
<path d="M3413 18783 c-7 -2 -13 -13 -13 -24 0 -10 -7 -19 -15 -19 -8 0 -15
-7 -15 -15 0 -8 7 -15 15 -15 12 0 15 -13 15 -59 0 -78 28 -107 84 -85 24 9 8
32 -20 26 -23 -4 -24 -3 -24 57 l0 61 30 0 c20 0 30 5 30 15 0 10 -10 15 -30
15 -25 0 -30 4 -30 25 0 25 -4 28 -27 18z"/>
<path d="M360 18650 c0 -73 3 -90 15 -90 12 0 15 17 15 90 0 73 -3 90 -15 90
-12 0 -15 -17 -15 -90z"/>
<path d="M450 18650 c0 -73 3 -90 15 -90 11 0 15 13 15 53 0 57 20 97 49 97
30 0 41 -22 41 -87 0 -50 3 -63 15 -63 13 0 15 13 13 77 -3 73 -5 78 -31 93
-25 14 -30 13 -57 -2 -25 -14 -30 -15 -30 -3 0 8 -7 15 -15 15 -12 0 -15 -17
-15 -90z"/>
<path d="M793 18730 c-24 -10 -37 -39 -27 -63 3 -9 27 -22 52 -30 29 -8 47
-18 47 -27 0 -19 -51 -26 -70 -10 -14 12 -35 6 -35 -9 0 -11 47 -31 73 -31 37
0 69 28 65 58 -2 23 -11 29 -51 41 -33 10 -47 19 -45 30 4 21 35 26 64 10 33
-17 44 -1 15 22 -25 20 -53 23 -88 9z"/>
<path d="M983 18730 c-28 -11 -43 -40 -43 -83 0 -72 77 -111 133 -67 22 17 25
25 16 31 -8 5 -20 2 -30 -7 -25 -22 -61 -14 -79 19 -13 24 -13 30 0 55 19 33
58 41 77 16 11 -14 15 -15 26 -5 10 10 7 16 -12 32 -25 20 -52 23 -88 9z"/>
<path d="M1393 18730 c-42 -17 -58 -94 -28 -137 32 -45 121 -37 144 13 37 83
-32 158 -116 124z m75 -32 c7 -7 12 -28 12 -48 0 -41 -14 -60 -46 -60 -24 0
-54 34 -54 60 0 45 59 77 88 48z"/>
<path d="M1603 18730 c-42 -17 -58 -94 -28 -137 32 -45 121 -37 144 13 37 83
-32 158 -116 124z m75 -32 c7 -7 12 -28 12 -48 0 -41 -14 -60 -46 -60 -24 0
-54 34 -54 60 0 45 59 77 88 48z"/>
<path d="M2090 18665 c0 -68 2 -76 25 -91 27 -17 73 -12 87 9 5 8 8 6 8 -5 0
-10 7 -18 15 -18 12 0 15 17 15 90 0 73 -3 90 -15 90 -12 0 -15 -13 -15 -59 0
-63 -15 -91 -49 -91 -30 0 -41 22 -41 87 0 49 -3 63 -15 63 -12 0 -15 -15 -15
-75z"/>
<path d="M2300 18650 c0 -73 3 -90 15 -90 11 0 15 13 15 53 0 57 20 97 49 97
30 0 41 -22 41 -87 0 -50 3 -63 15 -63 13 0 15 13 13 77 -3 73 -5 78 -31 93
-25 14 -30 13 -57 -2 -25 -14 -30 -15 -30 -3 0 8 -7 15 -15 15 -12 0 -15 -17
-15 -90z"/>
<path d="M2510 18650 c0 -73 3 -90 15 -90 12 0 15 17 15 90 0 73 -3 90 -15 90
-12 0 -15 -17 -15 -90z"/>
<path d="M2580 18734 c0 -5 14 -46 32 -91 42 -112 58 -111 103 10 30 79 31 87
14 87 -13 0 -23 -17 -40 -70 -13 -38 -25 -67 -28 -64 -3 3 -15 33 -27 67 -13
39 -27 63 -37 65 -10 2 -17 0 -17 -4z"/>
<path d="M2813 18730 c-43 -17 -58 -94 -28 -137 28 -40 135 -38 135 2 0 17
-21 20 -37 4 -16 -16 -54 -7 -71 19 l-14 22 66 0 c64 0 66 1 66 25 0 14 -11
37 -25 50 -25 26 -54 30 -92 15z m77 -40 c10 -19 8 -20 -40 -20 -27 0 -50 2
-50 4 0 3 7 12 16 20 22 22 61 20 74 -4z"/>
<path d="M2980 18650 c0 -73 3 -90 15 -90 11 0 15 13 15 53 0 59 20 97 51 97
10 0 19 7 19 15 0 20 -29 19 -52 -2 -17 -15 -18 -15 -18 0 0 10 -7 17 -15 17
-12 0 -15 -17 -15 -90z"/>
<path d="M3143 18730 c-24 -10 -37 -39 -27 -63 3 -9 27 -22 52 -30 29 -8 47
-18 47 -27 0 -19 -51 -26 -70 -10 -14 12 -35 6 -35 -9 0 -11 47 -31 73 -31 37
0 69 28 65 58 -2 23 -11 29 -51 41 -33 10 -47 19 -45 30 4 21 35 26 64 10 33
-17 44 -1 15 22 -25 20 -53 23 -88 9z"/>
<path d="M3300 18650 c0 -73 3 -90 15 -90 12 0 15 17 15 90 0 73 -3 90 -15 90
-12 0 -15 -17 -15 -90z"/>
<path d="M3539 18693 c10 -27 27 -67 36 -90 21 -53 7 -88 -31 -80 -19 3 -24 1
-22 -12 4 -23 51 -26 70 -4 9 10 32 59 51 108 20 50 38 98 42 108 5 13 2 17
-12 17 -15 0 -24 -16 -43 -72 l-23 -73 -24 73 c-19 56 -29 72 -44 72 -18 0
-18 -1 0 -47z"/>
<path d="M3854 18730 c-25 -10 -38 -37 -21 -43 6 -2 18 2 25 10 18 17 47 17
62 -2 17 -20 6 -31 -36 -38 -45 -8 -64 -23 -64 -53 0 -34 41 -52 82 -36 23 8
35 9 45 1 14 -13 43 -5 43 11 0 5 -7 10 -15 10 -12 0 -15 13 -15 59 0 51 -3
62 -22 75 -25 17 -52 19 -84 6z m76 -103 c0 -20 -21 -37 -46 -37 -31 0 -41 20
-19 37 24 17 65 17 65 0z"/>
<path d="M4020 18650 c0 -73 3 -90 15 -90 11 0 15 13 15 53 0 57 20 97 49 97
30 0 41 -22 41 -87 0 -50 3 -63 15 -63 13 0 15 13 13 77 -3 73 -5 78 -31 93
-25 14 -30 13 -57 -2 -25 -14 -30 -15 -30 -3 0 8 -7 15 -15 15 -12 0 -15 -17
-15 -90z"/>
<path d="M4813 18730 c-43 -17 -58 -94 -28 -137 28 -40 135 -38 135 2 0 17
-21 20 -37 4 -16 -16 -54 -7 -71 19 l-14 22 66 0 c64 0 66 1 66 25 0 14 -11
37 -25 50 -25 26 -54 30 -92 15z m77 -40 c10 -19 8 -20 -40 -20 -27 0 -50 2
-50 4 0 3 7 12 16 20 22 22 61 20 74 -4z"/>
<path d="M4969 18693 c10 -27 27 -67 36 -90 21 -53 7 -88 -31 -80 -19 3 -24 1
-22 -12 4 -23 51 -26 70 -4 9 10 32 59 51 108 20 50 38 98 42 108 5 13 2 17
-12 17 -15 0 -24 -16 -43 -72 l-23 -73 -24 73 c-19 56 -29 72 -44 72 -18 0
-18 -1 0 -47z"/>
<path d="M5183 18730 c-42 -17 -58 -94 -28 -137 32 -45 121 -37 144 13 37 83
-32 158 -116 124z m75 -32 c7 -7 12 -28 12 -48 0 -41 -14 -60 -46 -60 -24 0
-54 34 -54 60 0 45 59 77 88 48z"/>
<path d="M5360 18650 c0 -73 3 -90 15 -90 11 0 15 13 15 53 0 57 20 97 49 97
30 0 41 -22 41 -87 0 -50 3 -63 15 -63 13 0 15 13 13 77 -3 73 -5 78 -31 93
-25 14 -30 13 -57 -2 -25 -14 -30 -15 -30 -3 0 8 -7 15 -15 15 -12 0 -15 -17
-15 -90z"/>
<path d="M1873 18594 c-4 -11 1 -22 13 -31 18 -14 18 -15 1 -28 -10 -7 -14
-16 -9 -19 17 -10 44 31 40 61 -3 32 -34 44 -45 17z"/>
<path d="M5784 18595 c-4 -9 -2 -21 4 -27 15 -15 44 -1 40 19 -4 23 -36 29
-44 8z"/>
<path d="M9198 18423 c7 -3 16 -2 19 1 4 3 -2 6 -13 5 -11 0 -14 -3 -6 -6z"/>
<path d="M9313 18413 c15 -2 39 -2 55 0 15 2 2 4 -28 4 -30 0 -43 -2 -27 -4z"/>
<path d="M4595 18068 c-209 -104 -382 -192 -385 -195 -6 -6 89 -194 202 -398
256 -458 561 -911 845 -1253 124 -150 430 -457 553 -554 281 -224 565 -364
840 -415 129 -23 381 -23 510 0 149 28 335 95 590 214 129 61 260 119 290 129
74 25 189 25 257 0 43 -16 52 -24 57 -50 4 -16 11 -141 16 -275 6 -135 15
-288 21 -341 23 -222 81 -451 159 -630 22 -52 40 -95 40 -96 0 -1 -15 -6 -32
-10 -79 -17 -250 -80 -329 -120 -156 -80 -229 -177 -229 -303 0 -113 46 -175
176 -240 181 -90 512 -153 958 -183 l190 -12 78 -59 c282 -209 594 -364 877
-437 284 -72 594 -84 877 -34 l94 17 0 1245 0 1245 -42 -7 c-112 -18 -208
-106 -381 -350 -135 -192 -234 -301 -304 -337 -44 -22 -59 -24 -168 -23 -99 1
-148 8 -285 39 -195 44 -284 52 -403 36 -74 -10 -210 -43 -268 -66 -29 -11
-89 158 -118 330 -14 85 -20 167 -31 435 -5 129 -17 275 -25 325 -36 204 -116
374 -235 494 -78 80 -131 117 -247 175 -345 171 -709 182 -1083 34 -41 -16
-169 -74 -285 -128 -115 -54 -239 -108 -275 -120 -91 -31 -252 -38 -340 -15
-327 85 -770 516 -1220 1190 -180 270 -361 577 -484 823 -31 61 -62 112 -69
111 -6 0 -183 -86 -392 -191z"/>
<path d="M761 18139 c-128 -15 -203 -70 -233 -173 -17 -57 -16 -348 1 -406 19
-67 90 -133 166 -157 57 -17 130 -18 1590 -18 1743 0 1606 -7 1696 83 65 65
74 102 74 297 -1 176 -9 220 -54 282 -39 54 -97 80 -206 93 -111 12 -2925 11
-3034 -1z m2779 -379 l0 -170 -30 0 c-21 0 -30 5 -30 17 0 15 -1 15 -18 0 -30
-28 -89 -22 -123 12 -26 26 -29 36 -29 91 0 55 3 65 29 91 31 31 75 38 112 19
18 -10 19 -7 19 50 l0 60 35 0 35 0 0 -170z m-2317 136 c18 -7 41 -23 52 -35
l19 -23 -24 -18 c-25 -19 -25 -19 -48 5 -32 35 -83 34 -112 -2 -31 -39 -25
-137 9 -164 40 -33 99 -20 114 24 5 14 0 17 -39 17 -44 0 -45 1 -42 28 3 27 4
27 73 27 l70 0 3 -82 c3 -82 3 -83 -22 -83 -14 0 -28 5 -31 10 -4 7 -12 7 -25
0 -30 -16 -102 -12 -136 9 -45 28 -67 81 -62 152 5 68 27 105 79 131 41 22 79
23 122 4z m890 0 c18 -7 41 -21 50 -31 17 -17 17 -19 -4 -41 l-22 -24 -23 25
c-27 29 -84 34 -105 9 -11 -14 -10 -19 8 -34 12 -9 41 -20 63 -24 103 -16 135
-127 50 -171 -40 -20 -134 -19 -171 2 -37 22 -42 36 -18 61 l19 21 25 -24 c29
-29 95 -35 115 -9 19 21 -2 38 -70 58 -70 19 -100 46 -100 89 0 81 96 130 183
93z m-413 -31 c0 -33 2 -35 35 -35 31 0 35 -3 35 -25 0 -22 -4 -25 -35 -25
l-36 0 3 -67 3 -68 30 0 c21 0 31 -5 33 -19 5 -25 -14 -36 -65 -36 -58 0 -73
23 -73 117 0 66 -2 73 -20 73 -15 0 -20 7 -20 25 0 18 5 25 20 25 15 0 20 7
20 29 0 29 10 37 53 40 13 1 17 -7 17 -34z m610 0 c0 -33 2 -35 35 -35 31 0
35 -3 35 -25 0 -22 -4 -25 -35 -25 l-36 0 3 -67 3 -68 30 0 c21 -1 31 -6 33
-19 5 -25 -14 -36 -65 -36 -58 0 -73 23 -73 117 0 66 -2 73 -20 73 -15 0 -20
7 -20 25 0 18 5 25 20 25 15 0 20 7 20 29 0 29 10 37 53 40 13 1 17 -7 17 -34z
m630 1 c0 -33 2 -35 38 -38 29 -2 37 -7 37 -23 0 -16 -8 -21 -38 -23 l-38 -3
3 -67 3 -67 32 1 c22 1 33 -3 36 -16 7 -27 -12 -40 -57 -40 -64 0 -70 9 -76
102 l-5 83 -47 3 c-63 4 -78 -17 -78 -115 l0 -73 -35 0 -35 0 0 120 0 120 30
0 c21 0 30 -5 30 -16 0 -14 2 -14 16 -3 9 8 40 16 68 19 46 5 51 7 54 32 3 25
15 34 50 37 7 1 12 -12 12 -33z m-1417 -57 c27 -21 53 -90 43 -115 -4 -10 -25
-14 -81 -14 -41 0 -75 -4 -75 -8 0 -27 71 -45 85 -22 8 13 36 13 55 0 13 -9
11 -14 -13 -35 -22 -20 -39 -25 -79 -25 -44 0 -54 4 -84 34 -29 29 -34 41 -34
81 0 52 22 98 54 114 37 17 101 13 129 -10z m1068 -8 c26 -27 29 -36 29 -95 0
-52 3 -66 15 -66 16 0 19 -9 9 -34 -8 -20 -52 -21 -74 -1 -15 14 -18 14 -30 0
-17 -21 -94 -20 -115 1 -23 24 -15 73 16 96 14 11 44 22 67 25 42 6 52 19 30
41 -18 18 -42 15 -62 -7 -15 -16 -22 -18 -42 -9 -28 13 -29 16 -6 44 21 27 36
32 90 33 35 1 49 -5 73 -28z m630 19 c26 -15 49 -62 49 -105 l0 -35 -75 0
c-41 0 -75 -4 -75 -9 0 -18 31 -33 55 -27 14 3 36 9 50 12 18 5 27 2 32 -11
11 -30 -31 -55 -94 -55 -47 0 -59 4 -84 29 -53 54 -39 176 24 201 31 12 94 12
118 0z"/>
<path d="M3390 17761 c-14 -27 -13 -94 2 -109 18 -18 56 -14 68 7 5 11 10 34
10 51 0 44 -17 70 -45 70 -14 0 -29 -8 -35 -19z"/>
<path d="M1422 17768 c-25 -25 -13 -38 33 -38 30 0 45 4 45 13 0 19 -21 37
-45 37 -12 0 -26 -5 -33 -12z"/>
<path d="M2503 17680 c-30 -12 -30 -40 0 -40 25 0 47 17 47 37 0 15 -15 16
-47 3z"/>
<path d="M3127 17762 c-26 -28 -21 -32 33 -32 54 0 61 7 32 33 -24 22 -45 21
-65 -1z"/>
<path d="M225 15015 c-26 -25 -33 -72 -15 -105 12 -23 55 -34 81 -19 19 9 20
8 17 -17 -4 -37 -30 -52 -61 -35 -42 22 -55 8 -24 -23 23 -23 34 -27 60 -22
17 4 38 12 45 19 17 18 29 103 21 151 -12 72 -77 99 -124 51z m80 -55 c0 -32
-2 -35 -30 -35 -24 0 -31 5 -33 23 -6 38 5 54 35 50 25 -3 28 -7 28 -38z"/>
<path d="M427 15033 c-41 -11 -61 -119 -37 -190 11 -29 45 -53 76 -53 50 0 88
105 65 181 -17 56 -50 76 -104 62z m65 -77 c13 -59 -2 -120 -30 -124 -26 -4
-42 29 -42 83 0 54 16 87 42 83 17 -2 24 -13 30 -42z"/>
<path d="M6455 15031 c-40 -17 -59 -50 -62 -109 -5 -68 10 -101 54 -122 20
-10 33 -25 37 -41 7 -37 59 -58 94 -38 14 8 29 24 33 37 7 18 5 22 -12 22 -11
0 -22 -7 -25 -15 -4 -8 -14 -15 -24 -15 -22 0 -37 33 -18 39 7 2 28 19 47 38
32 32 33 36 29 94 -3 47 -10 65 -30 85 -27 28 -89 40 -123 25z m88 -49 c59
-65 7 -181 -68 -152 -47 18 -58 108 -19 151 22 24 66 24 87 1z"/>
<path d="M558 15005 c-14 -31 -1 -78 23 -83 40 -8 65 61 33 92 -23 23 -43 20
-56 -9z m47 -31 c0 -19 -5 -29 -15 -29 -16 0 -25 28 -16 51 10 25 31 10 31
-22z"/>
<path d="M653 14910 c-45 -66 -78 -120 -73 -120 8 0 170 224 170 235 0 19 -26
-12 -97 -115z"/>
<path d="M1122 15019 c-13 -5 -26 -18 -29 -29 -3 -11 -12 -20 -19 -20 -8 0
-14 -9 -14 -20 0 -11 7 -20 15 -20 12 0 15 -14 15 -70 0 -63 2 -70 20 -70 18
0 20 7 20 70 0 56 3 70 15 70 22 0 19 40 -2 40 -17 1 -17 1 0 14 17 13 24 47
10 45 -5 0 -19 -4 -31 -10z"/>
<path d="M1900 14990 c0 -37 -2 -40 -19 -30 -30 16 -50 12 -76 -15 -19 -18
-25 -35 -25 -65 0 -65 51 -106 100 -80 13 7 21 7 25 0 3 -5 13 -10 21 -10 11
0 14 22 14 120 0 113 -1 120 -20 120 -17 0 -20 -7 -20 -40z m0 -85 c14 -36 -3
-75 -33 -75 -30 0 -47 18 -47 50 0 52 62 72 80 25z"/>
<path d="M4210 14910 c0 -113 1 -120 20 -120 17 0 20 7 20 51 0 62 13 89 44
89 29 0 36 -16 36 -86 0 -47 2 -54 20 -54 18 0 20 7 20 70 0 57 -4 74 -20 90
-24 24 -48 25 -78 4 -22 -15 -22 -15 -22 30 0 39 -3 46 -20 46 -19 0 -20 -7
-20 -120z"/>
<path d="M4980 14910 c0 -113 1 -120 20 -120 17 0 20 7 20 51 0 62 13 89 44
89 29 0 36 -16 36 -86 0 -47 2 -54 20 -54 18 0 20 7 20 70 0 57 -4 74 -20 90
-24 24 -48 25 -78 4 -22 -15 -22 -15 -22 30 0 39 -3 46 -20 46 -19 0 -20 -7
-20 -120z"/>
<path d="M5530 14910 c0 -113 1 -120 20 -120 15 0 20 7 20 29 0 16 6 34 14 41
12 9 19 4 36 -29 15 -31 26 -41 44 -41 l24 0 -30 56 -30 55 26 28 c32 33 33
41 5 41 -13 0 -36 -16 -55 -37 l-33 -38 -1 68 c0 60 -2 67 -20 67 -19 0 -20
-7 -20 -120z"/>
<path d="M6820 15010 c0 -15 7 -20 25 -20 18 0 25 5 25 20 0 15 -7 20 -25 20
-18 0 -25 -5 -25 -20z"/>
<path d="M7900 14910 c0 -113 1 -120 20 -120 19 0 20 7 20 120 0 113 -1 120
-20 120 -19 0 -20 -7 -20 -120z"/>
<path d="M1430 14925 c0 -79 2 -88 26 -112 20 -20 31 -24 57 -19 40 8 57 30
57 73 0 26 -4 33 -19 33 -15 0 -21 -8 -23 -32 -2 -23 -9 -34 -22 -36 -24 -5
-36 14 -36 61 l0 37 50 0 c43 0 50 3 50 20 0 17 -7 20 -50 20 -43 0 -50 3 -50
20 0 13 -7 20 -20 20 -18 0 -20 -7 -20 -85z"/>
<path d="M2330 14925 c0 -79 2 -88 26 -112 20 -20 31 -24 57 -19 40 8 57 30
57 73 0 26 -4 33 -19 33 -15 0 -21 -8 -23 -32 -2 -23 -9 -34 -22 -36 -24 -5
-36 14 -36 61 l0 37 50 0 c43 0 50 3 50 20 0 17 -7 20 -50 20 -43 0 -50 3 -50
20 0 13 -7 20 -20 20 -18 0 -20 -7 -20 -85z"/>
<path d="M4040 14925 c0 -79 2 -88 26 -112 20 -20 31 -24 57 -19 40 8 57 30
57 73 0 26 -4 33 -19 33 -15 0 -21 -8 -23 -32 -2 -23 -9 -34 -22 -36 -24 -5
-36 14 -36 61 l0 37 50 0 c43 0 50 3 50 20 0 17 -7 20 -50 20 -43 0 -50 3 -50
20 0 13 -7 20 -20 20 -18 0 -20 -7 -20 -85z"/>
<path d="M4570 14925 c0 -79 2 -88 26 -112 20 -20 31 -24 57 -19 40 8 57 30
57 73 0 26 -4 33 -19 33 -15 0 -21 -8 -23 -32 -2 -23 -9 -34 -22 -36 -24 -5
-36 14 -36 61 l0 37 50 0 c43 0 50 3 50 20 0 17 -7 20 -50 20 -43 0 -50 3 -50
20 0 13 -7 20 -20 20 -18 0 -20 -7 -20 -85z"/>
<path d="M4820 14925 c0 -79 2 -88 26 -112 20 -20 31 -24 57 -19 40 8 57 30
57 73 0 26 -4 33 -19 33 -15 0 -21 -8 -23 -32 -2 -23 -9 -34 -22 -36 -24 -5
-36 14 -36 61 l0 37 50 0 c43 0 50 3 50 20 0 17 -7 20 -50 20 -43 0 -50 3 -50
20 0 13 -7 20 -20 20 -18 0 -20 -7 -20 -85z"/>
<path d="M5950 14925 c0 -79 2 -88 26 -112 20 -20 31 -24 57 -19 40 8 57 30
57 73 0 26 -4 33 -19 33 -15 0 -21 -8 -23 -32 -2 -23 -9 -34 -22 -36 -24 -5
-36 14 -36 61 l0 37 50 0 c43 0 50 3 50 20 0 17 -7 20 -50 20 -43 0 -50 3 -50
20 0 13 -7 20 -20 20 -18 0 -20 -7 -20 -85z"/>
<path d="M7550 14925 c0 -79 2 -88 26 -112 20 -20 31 -24 57 -19 40 8 57 30
57 73 0 26 -4 33 -19 33 -15 0 -21 -8 -23 -32 -2 -23 -9 -34 -22 -36 -24 -5
-36 14 -36 61 l0 37 50 0 c43 0 50 3 50 20 0 17 -7 20 -50 20 -43 0 -50 3 -50
20 0 13 -7 20 -20 20 -18 0 -20 -7 -20 -85z"/>
<path d="M925 14959 c-32 -18 -45 -40 -45 -75 0 -47 9 -63 42 -80 39 -20 92
-11 113 19 20 29 19 90 -2 116 -21 25 -80 36 -108 20z m73 -41 c29 -29 10 -88
-27 -88 -34 0 -51 17 -51 50 0 31 17 50 45 50 12 0 26 -5 33 -12z"/>
<path d="M1292 14960 c-53 -22 -35 -72 33 -89 52 -13 63 -41 16 -41 -17 0 -33
5 -36 10 -9 15 -45 12 -45 -4 0 -37 84 -59 125 -32 19 13 25 24 23 44 -2 22
-11 30 -50 42 -26 8 -49 20 -50 25 -4 14 42 19 55 6 13 -13 47 -15 47 -3 0 36
-72 61 -118 42z"/>
<path d="M1590 14900 c0 -57 4 -74 20 -90 24 -24 48 -25 78 -4 20 14 22 14 22
0 0 -9 9 -16 20 -16 19 0 20 7 20 90 0 83 -1 90 -20 90 -17 0 -20 -7 -20 -51
0 -62 -13 -89 -44 -89 -29 0 -36 16 -36 86 0 47 -2 54 -20 54 -18 0 -20 -7
-20 -70z"/>
<path d="M2013 14960 c-28 -12 -43 -40 -43 -83 0 -46 26 -76 72 -83 31 -6 41
-2 65 22 25 25 26 29 9 32 -10 2 -23 -1 -29 -7 -22 -22 -77 -6 -77 21 0 4 27
8 60 8 57 0 60 1 60 24 0 51 -65 88 -117 66z m71 -45 c4 -12 -3 -15 -34 -15
-31 0 -38 3 -34 15 4 8 18 15 34 15 16 0 30 -7 34 -15z"/>
<path d="M2150 14880 c0 -83 1 -90 20 -90 18 0 20 7 20 58 0 62 11 82 46 82
27 0 34 -17 34 -86 0 -47 2 -54 20 -54 18 0 20 7 20 70 0 57 -4 74 -20 90 -24
24 -48 25 -78 4 -20 -14 -22 -14 -22 0 0 9 -9 16 -20 16 -19 0 -20 -7 -20 -90z"/>
<path d="M2532 14960 c-53 -22 -35 -72 33 -89 52 -13 63 -41 16 -41 -17 0 -33
5 -36 10 -9 15 -45 12 -45 -4 0 -37 84 -59 125 -32 19 13 25 24 23 44 -2 22
-11 30 -50 42 -26 8 -49 20 -50 25 -4 14 42 19 55 6 13 -13 47 -15 47 -3 0 36
-72 61 -118 42z"/>
<path d="M2794 14961 c-28 -12 -39 -51 -15 -51 9 0 22 5 28 11 14 14 55 8 60
-8 3 -7 -8 -15 -24 -18 -70 -14 -78 -19 -81 -53 -4 -41 29 -60 77 -44 19 7 31
7 31 1 0 -5 9 -9 20 -9 18 0 20 7 20 74 0 51 -4 77 -14 85 -19 16 -76 23 -102
12z m76 -94 c0 -20 -22 -37 -48 -37 -32 0 -26 32 8 41 37 10 40 10 40 -4z"/>
<path d="M2930 14840 c0 -123 1 -130 20 -130 17 0 20 7 20 51 0 45 2 50 18 44
39 -16 53 -17 77 -1 32 21 43 77 22 121 -18 37 -56 52 -89 34 -17 -9 -23 -9
-26 0 -2 6 -12 11 -23 11 -18 0 -19 -9 -19 -130z m120 65 c14 -36 -3 -75 -33
-75 -30 0 -47 18 -47 50 0 52 62 72 80 25z"/>
<path d="M3120 14840 c0 -123 1 -130 20 -130 17 0 20 7 20 51 0 45 2 50 18 44
39 -16 53 -17 77 -1 32 21 43 77 22 121 -18 37 -56 52 -89 34 -17 -9 -23 -9
-26 0 -2 6 -12 11 -23 11 -18 0 -19 -9 -19 -130z m120 65 c14 -36 -3 -75 -33
-75 -30 0 -47 18 -47 50 0 52 62 72 80 25z"/>
<path d="M3310 14880 c0 -83 1 -90 20 -90 17 0 20 7 20 46 0 55 14 84 40 84
15 0 20 7 20 25 0 27 -10 31 -41 15 -13 -7 -19 -7 -19 0 0 5 -9 10 -20 10 -19
0 -20 -7 -20 -90z"/>
<path d="M3465 14959 c-32 -18 -45 -40 -45 -75 0 -47 9 -63 42 -80 39 -20 92
-11 113 19 20 29 19 90 -2 116 -21 25 -80 36 -108 20z m73 -41 c29 -29 10 -88
-27 -88 -34 0 -51 17 -51 50 0 31 17 50 45 50 12 0 26 -5 33 -12z"/>
<path d="M3601 14958 c0 -7 12 -47 27 -88 23 -65 30 -75 51 -75 20 0 27 11 52
80 34 96 34 95 10 95 -15 0 -24 -13 -37 -55 -10 -30 -21 -55 -25 -55 -3 0 -13
24 -21 53 -11 40 -19 53 -36 55 -13 2 -22 -2 -21 -10z"/>
<path d="M3813 14960 c-28 -12 -43 -40 -43 -83 0 -46 26 -76 72 -83 31 -6 41
-2 65 22 25 25 26 29 9 32 -10 2 -23 -1 -29 -7 -22 -22 -77 -6 -77 21 0 4 27
8 60 8 57 0 60 1 60 24 0 51 -65 88 -117 66z m71 -45 c4 -12 -3 -15 -34 -15
-31 0 -38 3 -34 15 4 8 18 15 34 15 16 0 30 -7 34 -15z"/>
<path d="M4424 14961 c-28 -12 -39 -51 -15 -51 9 0 22 5 28 11 14 14 55 8 60
-8 3 -7 -8 -15 -24 -18 -70 -14 -78 -19 -81 -53 -4 -41 29 -60 77 -44 19 7 31
7 31 1 0 -5 9 -9 20 -9 18 0 20 7 20 74 0 51 -4 77 -14 85 -19 16 -76 23 -102
12z m76 -94 c0 -20 -22 -37 -48 -37 -32 0 -26 32 8 41 37 10 40 10 40 -4z"/>
<path d="M5204 14961 c-28 -12 -39 -51 -15 -51 9 0 22 5 28 11 14 14 55 8 60
-8 3 -7 -8 -15 -24 -18 -70 -14 -78 -19 -81 -53 -4 -41 29 -60 77 -44 19 7 31
7 31 1 0 -5 9 -9 20 -9 18 0 20 7 20 74 0 51 -4 77 -14 85 -19 16 -76 23 -102
12z m76 -94 c0 -20 -22 -37 -48 -37 -32 0 -26 32 8 41 37 10 40 10 40 -4z"/>
<path d="M5340 14880 c0 -83 1 -90 20 -90 18 0 20 7 20 58 0 62 11 82 46 82
27 0 34 -17 34 -86 0 -47 2 -54 20 -54 18 0 20 7 20 70 0 57 -4 74 -20 90 -24
24 -48 25 -78 4 -20 -14 -22 -14 -22 0 0 9 -9 16 -20 16 -19 0 -20 -7 -20 -90z"/>
<path d="M5722 14960 c-53 -22 -35 -72 33 -89 52 -13 63 -41 16 -41 -17 0 -33
5 -36 10 -9 15 -45 12 -45 -4 0 -37 84 -59 125 -32 19 13 25 24 23 44 -2 22
-11 30 -50 42 -26 8 -49 20 -50 25 -4 14 42 19 55 6 13 -13 47 -15 47 -3 0 36
-72 61 -118 42z"/>
<path d="M6155 14959 c-32 -18 -45 -40 -45 -75 0 -47 9 -63 42 -80 39 -20 92
-11 113 19 20 29 19 90 -2 116 -21 25 -80 36 -108 20z m73 -41 c29 -29 10 -88
-27 -88 -34 0 -51 17 -51 50 0 31 17 50 45 50 12 0 26 -5 33 -12z"/>
<path d="M6640 14900 c0 -57 4 -74 20 -90 24 -24 48 -25 78 -4 20 14 22 14 22
0 0 -9 9 -16 20 -16 19 0 20 7 20 90 0 89 0 90 -25 90 -23 0 -24 -2 -18 -48 7
-59 -8 -92 -41 -92 -29 0 -36 16 -36 86 0 47 -2 54 -20 54 -18 0 -20 -7 -20
-70z"/>
<path d="M6820 14880 c0 -83 1 -90 20 -90 18 0 20 7 20 68 0 37 3 77 6 90 5
19 2 22 -20 22 l-26 0 0 -90z"/>
<path d="M6890 14951 c0 -16 8 -20 41 -23 l41 -3 -41 -47 c-23 -25 -41 -56
-41 -67 0 -19 6 -21 70 -21 63 0 70 2 70 20 0 17 -7 20 -40 20 -22 0 -40 4
-40 8 0 4 18 26 40 47 24 23 40 48 40 62 0 22 -4 23 -70 23 -63 0 -70 -2 -70
-19z"/>
<path d="M7050 14840 c0 -123 1 -130 20 -130 17 0 20 7 20 51 0 45 2 50 18 44
39 -16 53 -17 77 -1 32 21 43 77 22 121 -18 37 -56 52 -89 34 -17 -9 -23 -9
-26 0 -2 6 -12 11 -23 11 -18 0 -19 -9 -19 -130z m120 65 c14 -36 -3 -75 -33
-75 -30 0 -47 18 -47 50 0 52 62 72 80 25z"/>
<path d="M7285 14959 c-32 -18 -45 -40 -45 -75 0 -47 9 -63 42 -80 39 -20 92
-11 113 19 20 29 19 90 -2 116 -21 25 -80 36 -108 20z m73 -41 c29 -29 10 -88
-27 -88 -34 0 -51 17 -51 50 0 31 17 50 45 50 12 0 26 -5 33 -12z"/>
<path d="M7440 14880 c0 -83 1 -90 20 -90 17 0 20 7 20 46 0 55 14 84 40 84
15 0 20 7 20 25 0 27 -10 31 -41 15 -13 -7 -19 -7 -19 0 0 5 -9 10 -20 10 -19
0 -20 -7 -20 -90z"/>
<path d="M7754 14961 c-28 -12 -39 -51 -15 -51 9 0 22 5 28 11 14 14 55 8 60
-8 3 -7 -8 -15 -24 -18 -70 -14 -78 -19 -81 -53 -4 -41 29 -60 77 -44 19 7 31
7 31 1 0 -5 9 -9 20 -9 18 0 20 7 20 74 0 51 -4 77 -14 85 -19 16 -76 23 -102
12z m76 -94 c0 -20 -22 -37 -48 -37 -32 0 -26 32 8 41 37 10 40 10 40 -4z"/>
<path d="M706 14904 c-29 -28 -12 -115 22 -114 24 1 37 23 37 65 0 30 -5 49
-15 55 -21 13 -26 12 -44 -6z m39 -50 c0 -28 -4 -39 -15 -39 -16 0 -26 45 -16
72 11 28 31 7 31 -33z"/>
<path d="M1540 14470 c0 -113 1 -120 20 -120 17 0 20 7 20 51 0 62 13 89 44
89 29 0 36 -16 36 -86 0 -47 2 -54 20 -54 18 0 20 7 20 70 0 57 -4 74 -20 90
-24 24 -48 25 -78 4 -22 -15 -22 -15 -22 30 0 39 -3 46 -20 46 -19 0 -20 -7
-20 -120z"/>
<path d="M3270 14550 c0 -37 -2 -40 -19 -30 -30 16 -50 12 -76 -15 -35 -34
-35 -96 0 -130 26 -27 46 -31 75 -15 13 7 21 7 25 0 3 -5 13 -10 21 -10 11 0
14 22 14 120 0 113 -1 120 -20 120 -17 0 -20 -7 -20 -40z m0 -85 c14 -36 -3
-75 -33 -75 -30 0 -47 18 -47 50 0 52 62 72 80 25z"/>
<path d="M4140 14570 c0 -13 7 -20 20 -20 13 0 20 7 20 20 0 13 -7 20 -20 20
-13 0 -20 -7 -20 -20z"/>
<path d="M4670 14470 c0 -112 1 -120 19 -120 11 0 21 5 23 11 3 9 9 9 26 0 33
-18 71 -3 89 34 21 44 10 100 -22 121 -24 16 -38 15 -77 -1 -15 -6 -18 -1 -18
34 0 34 -3 41 -20 41 -19 0 -20 -7 -20 -120z m120 -5 c14 -36 -3 -75 -33 -75
-30 0 -47 18 -47 50 0 52 62 72 80 25z"/>
<path d="M6360 14550 c0 -37 -2 -40 -19 -30 -30 16 -50 12 -76 -15 -19 -18
-25 -35 -25 -65 0 -65 51 -106 100 -80 13 7 21 7 25 0 3 -5 13 -10 21 -10 11
0 14 22 14 120 0 113 -1 120 -20 120 -17 0 -20 -7 -20 -40z m0 -85 c14 -36 -3
-75 -33 -75 -30 0 -47 18 -47 50 0 52 62 72 80 25z"/>
<path d="M1380 14485 c0 -79 2 -88 26 -112 20 -20 31 -24 57 -19 40 8 57 30
57 73 0 26 -4 33 -19 33 -15 0 -21 -8 -23 -32 -2 -23 -9 -34 -22 -36 -24 -5
-36 14 -36 61 l0 37 50 0 c43 0 50 3 50 20 0 17 -7 20 -50 20 -43 0 -50 3 -50
20 0 13 -7 20 -20 20 -18 0 -20 -7 -20 -85z"/>
<path d="M2350 14485 c0 -79 2 -88 26 -112 20 -20 31 -24 57 -19 40 8 57 30
57 73 0 26 -4 33 -19 33 -15 0 -21 -8 -23 -32 -2 -23 -9 -34 -22 -36 -24 -5
-36 14 -36 61 l0 37 50 0 c43 0 50 3 50 20 0 17 -7 20 -50 20 -43 0 -50 3 -50
20 0 13 -7 20 -20 20 -18 0 -20 -7 -20 -85z"/>
<path d="M2810 14485 c0 -79 2 -88 26 -112 20 -20 31 -24 57 -19 40 8 57 30
57 73 0 26 -4 33 -19 33 -15 0 -21 -8 -23 -32 -2 -23 -9 -34 -22 -36 -24 -5
-36 14 -36 61 l0 37 50 0 c43 0 50 3 50 20 0 17 -7 20 -50 20 -43 0 -50 3 -50
20 0 13 -7 20 -20 20 -18 0 -20 -7 -20 -85z"/>
<path d="M3810 14485 c0 -79 2 -88 26 -112 20 -20 31 -24 57 -19 40 8 57 30
57 73 0 26 -4 33 -19 33 -15 0 -21 -8 -23 -32 -2 -23 -9 -34 -22 -36 -24 -5
-36 14 -36 61 l0 37 50 0 c43 0 50 3 50 20 0 17 -7 20 -50 20 -43 0 -50 3 -50
20 0 13 -7 20 -20 20 -18 0 -20 -7 -20 -85z"/>
<path d="M3970 14485 c0 -79 2 -88 26 -112 20 -20 31 -24 57 -19 40 8 57 30
57 73 0 26 -4 33 -19 33 -15 0 -21 -8 -23 -32 -2 -23 -9 -34 -22 -36 -24 -5
-36 14 -36 61 l0 37 50 0 c43 0 50 3 50 20 0 17 -7 20 -50 20 -43 0 -50 3 -50
20 0 13 -7 20 -20 20 -18 0 -20 -7 -20 -85z"/>
<path d="M5040 14485 c0 -79 2 -88 26 -112 20 -20 31 -24 57 -19 40 8 57 30
57 73 0 26 -4 33 -19 33 -15 0 -21 -8 -23 -32 -2 -23 -9 -34 -22 -36 -24 -5
-36 14 -36 61 l0 37 50 0 c43 0 50 3 50 20 0 17 -7 20 -50 20 -43 0 -50 3 -50
20 0 13 -7 20 -20 20 -18 0 -20 -7 -20 -85z"/>
<path d="M5210 14485 c0 -79 2 -88 26 -112 20 -20 31 -24 57 -19 40 8 57 30
57 73 0 26 -4 33 -19 33 -15 0 -21 -8 -23 -32 -2 -23 -9 -34 -22 -36 -24 -5
-36 14 -36 61 l0 37 50 0 c43 0 50 3 50 20 0 17 -7 20 -50 20 -43 0 -50 3 -50
20 0 13 -7 20 -20 20 -18 0 -20 -7 -20 -85z"/>
<path d="M1773 14520 c-28 -12 -43 -40 -43 -83 0 -46 26 -76 72 -83 31 -6 41
-2 65 22 25 25 26 29 9 32 -10 2 -23 -1 -29 -7 -22 -22 -77 -6 -77 21 0 4 27
8 60 8 57 0 60 1 60 24 0 51 -65 88 -117 66z m71 -45 c4 -12 -3 -15 -34 -15
-31 0 -38 3 -34 15 4 8 18 15 34 15 16 0 30 -7 34 -15z"/>
<path d="M1910 14464 c0 -36 4 -74 10 -84 12 -23 55 -33 81 -19 27 14 32 8 20
-25 -12 -29 -57 -37 -67 -11 -7 17 -44 21 -44 5 0 -18 48 -60 69 -60 33 0 68
21 80 47 6 13 11 66 11 118 0 88 -1 95 -20 95 -17 0 -20 -7 -20 -51 0 -62 -13
-89 -44 -89 -29 0 -36 16 -36 86 0 47 -2 54 -20 54 -18 0 -20 -7 -20 -66z"/>
<path d="M2212 14520 c-53 -22 -35 -72 33 -89 52 -13 63 -41 16 -41 -17 0 -33
5 -36 10 -9 15 -45 12 -45 -4 0 -37 84 -59 125 -32 19 13 25 24 23 44 -2 22
-11 30 -50 42 -26 8 -49 20 -50 25 -4 14 42 19 55 6 13 -13 47 -15 47 -3 0 36
-72 61 -118 42z"/>
<path d="M2544 14521 c-28 -12 -39 -51 -15 -51 9 0 22 5 28 11 14 14 55 8 60
-8 3 -7 -8 -15 -24 -18 -70 -14 -78 -19 -81 -53 -4 -41 29 -60 77 -44 19 7 31
7 31 1 0 -5 9 -9 20 -9 18 0 20 7 20 74 0 51 -4 77 -14 85 -19 16 -76 23 -102
12z m76 -94 c0 -20 -22 -37 -48 -37 -32 0 -26 32 8 41 37 10 40 10 40 -4z"/>
<path d="M2690 14440 c0 -83 1 -90 20 -90 17 0 20 7 20 46 0 55 14 84 40 84
15 0 20 7 20 25 0 27 -10 31 -41 15 -13 -7 -19 -7 -19 0 0 5 -9 10 -20 10 -19
0 -20 -7 -20 -90z"/>
<path d="M3013 14520 c-28 -12 -43 -40 -43 -83 0 -46 26 -76 72 -83 31 -6 41
-2 65 22 25 25 26 29 9 32 -10 2 -23 -1 -29 -7 -22 -22 -77 -6 -77 21 0 4 27
8 60 8 57 0 60 1 60 24 0 51 -65 88 -117 66z m71 -45 c4 -12 -3 -15 -34 -15
-31 0 -38 3 -34 15 4 8 18 15 34 15 16 0 30 -7 34 -15z"/>
<path d="M3455 14505 c-19 -18 -25 -35 -25 -65 0 -30 6 -47 25 -65 26 -27 46
-31 77 -14 26 14 34 5 20 -26 -9 -19 -19 -25 -42 -25 -18 0 -33 6 -36 15 -8
19 -44 20 -44 2 0 -37 65 -63 114 -47 45 15 56 44 56 155 0 87 -2 95 -19 95
-11 0 -21 -5 -23 -11 -3 -9 -9 -9 -25 0 -32 17 -51 14 -78 -14z m97 -40 c16
-36 -3 -75 -37 -75 -17 0 -29 8 -37 25 -16 36 3 75 37 75 17 0 29 -8 37 -25z"/>
<path d="M3663 14520 c-28 -12 -43 -40 -43 -83 0 -46 26 -76 72 -83 31 -6 41
-2 65 22 25 25 26 29 9 32 -10 2 -23 -1 -29 -7 -22 -22 -77 -6 -77 21 0 4 27
8 60 8 57 0 60 1 60 24 0 51 -65 88 -117 66z m71 -45 c4 -12 -3 -15 -34 -15
-31 0 -38 3 -34 15 4 8 18 15 34 15 16 0 30 -7 34 -15z"/>
<path d="M4140 14440 c0 -83 1 -90 20 -90 19 0 20 7 20 90 0 83 -1 90 -20 90
-19 0 -20 -7 -20 -90z"/>
<path d="M4210 14440 c0 -83 1 -90 20 -90 18 0 20 7 20 58 0 62 11 82 46 82
27 0 34 -17 34 -86 0 -47 2 -54 20 -54 18 0 20 7 20 70 0 57 -4 74 -20 90 -24
24 -48 25 -78 4 -20 -14 -22 -14 -22 0 0 9 -9 16 -20 16 -19 0 -20 -7 -20 -90z"/>
<path d="M4415 14505 c-19 -18 -25 -35 -25 -65 0 -30 6 -47 25 -65 26 -27 46
-31 77 -14 26 14 34 5 20 -26 -9 -19 -19 -25 -42 -25 -18 0 -33 6 -36 15 -8
19 -44 20 -44 2 0 -37 65 -63 114 -47 45 15 56 44 56 155 0 87 -2 95 -19 95
-11 0 -21 -5 -23 -11 -3 -9 -9 -9 -25 0 -32 17 -51 14 -78 -14z m97 -40 c16
-36 -3 -75 -37 -75 -17 0 -29 8 -37 25 -16 36 3 75 37 75 17 0 29 -8 37 -25z"/>
<path d="M4903 14520 c-28 -12 -43 -40 -43 -83 0 -46 26 -76 72 -83 31 -6 41
-2 65 22 25 25 26 29 9 32 -10 2 -23 -1 -29 -7 -22 -22 -77 -6 -77 21 0 4 27
8 60 8 57 0 60 1 60 24 0 51 -65 88 -117 66z m71 -45 c4 -12 -3 -15 -34 -15
-31 0 -38 3 -34 15 4 8 18 15 34 15 16 0 30 -7 34 -15z"/>
<path d="M5413 14520 c-28 -12 -43 -40 -43 -83 0 -46 26 -76 72 -83 31 -6 41
-2 65 22 25 25 26 29 9 32 -10 2 -23 -1 -29 -7 -22 -22 -77 -6 -77 21 0 4 27
8 60 8 57 0 60 1 60 24 0 51 -65 88 -117 66z m71 -45 c4 -12 -3 -15 -34 -15
-31 0 -38 3 -34 15 4 8 18 15 34 15 16 0 30 -7 34 -15z"/>
<path d="M5560 14440 c0 -83 1 -90 20 -90 17 0 20 7 20 46 0 55 14 84 40 84
15 0 20 7 20 25 0 27 -10 31 -41 15 -13 -7 -19 -7 -19 0 0 5 -9 10 -20 10 -19
0 -20 -7 -20 -90z"/>
<path d="M5785 14505 c-19 -18 -25 -35 -25 -65 0 -30 6 -47 25 -65 26 -27 46
-31 77 -14 26 14 34 5 20 -26 -9 -19 -19 -25 -42 -25 -18 0 -33 6 -36 15 -8
19 -44 20 -44 2 0 -37 65 -63 114 -47 45 15 56 44 56 155 0 87 -2 95 -19 95
-11 0 -21 -5 -23 -11 -3 -9 -9 -9 -25 0 -32 17 -51 14 -78 -14z m97 -40 c16
-36 -3 -75 -37 -75 -34 0 -53 39 -37 75 8 17 20 25 37 25 17 0 29 -8 37 -25z"/>
<path d="M5950 14440 c0 -83 1 -90 20 -90 17 0 20 7 20 46 0 55 14 84 40 84
15 0 20 7 20 25 0 27 -10 31 -41 15 -13 -7 -19 -7 -19 0 0 5 -9 10 -20 10 -19
0 -20 -7 -20 -90z"/>
<path d="M6094 14521 c-28 -12 -39 -51 -15 -51 9 0 22 5 28 11 14 14 55 8 60
-8 3 -7 -8 -15 -24 -18 -70 -14 -78 -19 -81 -53 -4 -41 29 -60 77 -44 19 7 31
7 31 1 0 -5 9 -9 20 -9 18 0 20 7 20 74 0 51 -4 77 -14 85 -19 16 -76 23 -102
12z m76 -94 c0 -20 -22 -37 -48 -37 -32 0 -26 32 8 41 37 10 40 10 40 -4z"/>
<path d="M6473 14520 c-28 -12 -43 -40 -43 -83 0 -46 26 -76 72 -83 31 -6 41
-2 65 22 25 25 26 29 9 32 -10 2 -23 -1 -29 -7 -22 -22 -77 -6 -77 21 0 4 27
8 60 8 57 0 60 1 60 24 0 51 -65 88 -117 66z m71 -45 c4 -12 -3 -15 -34 -15
-31 0 -38 3 -34 15 4 8 18 15 34 15 16 0 30 -7 34 -15z"/>
<path d="M6642 14520 c-53 -22 -35 -72 33 -89 52 -13 63 -41 16 -41 -17 0 -33
5 -36 10 -9 15 -45 12 -45 -4 0 -37 84 -59 125 -32 19 13 25 24 23 44 -2 22
-11 30 -50 42 -26 8 -49 20 -50 25 -4 14 42 19 55 6 13 -13 47 -15 47 -3 0 36
-72 61 -118 42z"/>
</g>
</svg>
